<?xml version="1.0" encoding="UTF-8"?>
<!DOCTYPE svg PUBLIC "-//W3C//DTD SVG 1.1//EN" "http://www.w3.org/Graphics/SVG/1.1/DTD/svg11.dtd">
<svg xmlns="http://www.w3.org/2000/svg" version="1.1" width="180px" height="180px" style="shape-rendering:geometricPrecision; text-rendering:geometricPrecision; image-rendering:optimizeQuality; fill-rule:evenodd; clip-rule:evenodd" xmlns:xlink="http://www.w3.org/1999/xlink">
<g><path style="opacity:1" fill="#023c7e" d="M 127.5,-0.5 C 129.167,-0.5 130.833,-0.5 132.5,-0.5C 133.462,6.41215 133.795,13.4122 133.5,20.5C 128.848,19.7653 125.514,21.432 123.5,25.5C 121.896,24.713 121.229,23.3797 121.5,21.5C 123.463,20.0401 125.296,18.3734 127,16.5C 127.499,10.8431 127.666,5.17645 127.5,-0.5 Z"/></g>
<g><path style="opacity:1" fill="#0063b9" d="M 125.5,-0.5 C 126.167,-0.5 126.833,-0.5 127.5,-0.5C 127.666,5.17645 127.499,10.8431 127,16.5C 125.296,18.3734 123.463,20.0401 121.5,21.5C 121.5,20.8333 121.5,20.1667 121.5,19.5C 122.794,18.7101 123.961,17.7101 125,16.5C 125.499,10.8431 125.666,5.17645 125.5,-0.5 Z"/></g>
<g><path style="opacity:1" fill="#044287" d="M 56.5,-0.5 C 73.5,-0.5 90.5,-0.5 107.5,-0.5C 107.216,2.77659 107.549,5.94325 108.5,9C 112.152,9.49863 115.818,9.6653 119.5,9.5C 119.5,6.16667 119.5,2.83333 119.5,-0.5C 121.5,-0.5 123.5,-0.5 125.5,-0.5C 125.666,5.17645 125.499,10.8431 125,16.5C 123.961,17.7101 122.794,18.7101 121.5,19.5C 117.971,14.238 112.971,11.9046 106.5,12.5C 105.653,11.0337 104.32,10.2004 102.5,10C 98.283,9.30145 94.1164,8.46812 90,7.5C 85.1488,9.65185 79.9822,10.8185 74.5,11C 72.5448,11.9533 70.8782,13.2866 69.5,15C 68.552,15.4828 67.552,15.6495 66.5,15.5C 63.1667,15.5 59.8333,15.5 56.5,15.5C 56.5,10.1667 56.5,4.83333 56.5,-0.5 Z"/></g>
<g><path style="opacity:1" fill="#0066bb" d="M 107.5,-0.5 C 108.167,-0.5 108.833,-0.5 109.5,-0.5C 109.336,2.1873 109.503,4.85397 110,7.5C 112.394,6.86414 114.894,6.86414 117.5,7.5C 117.5,4.83333 117.5,2.16667 117.5,-0.5C 118.167,-0.5 118.833,-0.5 119.5,-0.5C 119.5,2.83333 119.5,6.16667 119.5,9.5C 115.818,9.6653 112.152,9.49863 108.5,9C 107.549,5.94325 107.216,2.77659 107.5,-0.5 Z"/></g>
<g><path style="opacity:1" fill="#023d80" d="M 109.5,-0.5 C 112.167,-0.5 114.833,-0.5 117.5,-0.5C 117.5,2.16667 117.5,4.83333 117.5,7.5C 114.894,6.86414 112.394,6.86414 110,7.5C 109.503,4.85397 109.336,2.1873 109.5,-0.5 Z"/></g>
<g><path style="opacity:1" fill="#52c3fb" d="M 106.5,12.5 C 108.42,13.0652 110.087,14.0652 111.5,15.5C 111.167,15.5 110.833,15.5 110.5,15.5C 107.857,14.854 105.024,14.854 102,15.5C 100.624,15.3158 99.7911,14.6491 99.5,13.5C 101.288,13.7852 102.955,13.4519 104.5,12.5C 101.011,11.1409 97.6772,11.4742 94.5,13.5C 91.792,11.5643 88.792,11.0643 85.5,12C 86.5,12.3333 87.5,12.6667 88.5,13C 86.0243,14.3088 84.0243,16.1421 82.5,18.5C 79.0382,16.6088 75.3716,16.1088 71.5,17C 73.7885,17.8221 76.1218,18.4888 78.5,19C 75.68,19.7355 73.68,21.4022 72.5,24C 68.8606,23.7221 65.1939,23.7221 61.5,24C 64.1667,24.6667 66.8333,25.3333 69.5,26C 67.4565,27.708 65.7899,29.708 64.5,32C 62.5568,31.6948 60.5568,31.6948 58.5,32C 62.4033,32.412 64.07,34.5786 63.5,38.5C 61.4884,37.9862 59.4884,37.8195 57.5,38C 57.1667,38.3333 56.8333,38.6667 56.5,39C 59.1193,39.1515 61.4527,39.9848 63.5,41.5C 63.1667,42.1667 62.8333,42.8333 62.5,43.5C 53.256,45.1268 53.256,46.1268 62.5,46.5C 62.1072,49.5133 62.7739,52.1799 64.5,54.5C 61.2148,54.2643 58.2148,53.2643 55.5,51.5C 54.8909,47.3653 54.2243,43.3653 53.5,39.5C 53.5569,38.391 53.8902,37.391 54.5,36.5C 54.5,35.1667 54.5,33.8333 54.5,32.5C 54.5,32.1667 54.5,31.8333 54.5,31.5C 55.925,30.078 56.925,28.4113 57.5,26.5C 57.5,26.1667 57.5,25.8333 57.5,25.5C 58.1667,24.5 58.8333,23.5 59.5,22.5C 61.0269,22.573 62.0269,21.9063 62.5,20.5C 62.5569,19.391 62.8902,18.391 63.5,17.5C 64.7095,17.0679 65.7095,16.4013 66.5,15.5C 67.552,15.6495 68.552,15.4828 69.5,15C 70.8782,13.2866 72.5448,11.9533 74.5,11C 79.9822,10.8185 85.1488,9.65185 90,7.5C 94.1164,8.46812 98.283,9.30145 102.5,10C 104.32,10.2004 105.653,11.0337 106.5,12.5 Z"/></g>
<g><path style="opacity:1" fill="#013b7d" d="M 50.5,-0.5 C 51.8333,-0.5 53.1667,-0.5 54.5,-0.5C 54.5,5.5 54.5,11.5 54.5,17.5C 57.5,17.5 60.5,17.5 63.5,17.5C 62.8902,18.391 62.5569,19.391 62.5,20.5C 59.4816,20.6646 56.4816,20.498 53.5,20C 52.6667,19.1667 51.8333,18.3333 51,17.5C 50.5005,11.5092 50.3338,5.50924 50.5,-0.5 Z"/></g>
<g><path style="opacity:1" fill="#0161b6" d="M 54.5,-0.5 C 55.1667,-0.5 55.8333,-0.5 56.5,-0.5C 56.5,4.83333 56.5,10.1667 56.5,15.5C 59.8333,15.5 63.1667,15.5 66.5,15.5C 65.7095,16.4013 64.7095,17.0679 63.5,17.5C 60.5,17.5 57.5,17.5 54.5,17.5C 54.5,11.5 54.5,5.5 54.5,-0.5 Z"/></g>
<g><path style="opacity:1" fill="#013d80" d="M 46.5,-0.5 C 47.5,-0.5 48.5,-0.5 49.5,-0.5C 49.3338,5.84209 49.5005,12.1754 50,18.5C 52.2393,21.962 55.406,23.2954 59.5,22.5C 58.8333,23.5 58.1667,24.5 57.5,25.5C 54.8431,25.838 52.5098,25.1713 50.5,23.5C 49.5,24.1667 48.5,24.8333 47.5,25.5C 46.502,16.8589 46.1686,8.19221 46.5,-0.5 Z"/></g>
<g><path style="opacity:1" fill="#0166be" d="M 49.5,-0.5 C 49.8333,-0.5 50.1667,-0.5 50.5,-0.5C 50.3338,5.50924 50.5005,11.5092 51,17.5C 51.8333,18.3333 52.6667,19.1667 53.5,20C 56.4816,20.498 59.4816,20.6646 62.5,20.5C 62.0269,21.9063 61.0269,22.573 59.5,22.5C 55.406,23.2954 52.2393,21.962 50,18.5C 49.5005,12.1754 49.3338,5.84209 49.5,-0.5 Z"/></g>
<g><path style="opacity:1" fill="#15adfd" d="M 99.5,13.5 C 99.7911,14.6491 100.624,15.3158 102,15.5C 105.024,14.854 107.857,14.854 110.5,15.5C 114.592,24.5711 113.259,25.4044 106.5,18C 104.635,16.6986 102.635,16.3653 100.5,17C 103.759,18.2106 106.592,20.0439 109,22.5C 109.758,24.7695 109.591,26.9361 108.5,29C 104.625,30.5204 100.625,30.8538 96.5,30C 95.3633,27.0302 93.3633,24.8635 90.5,23.5C 90.1667,23.8333 89.8333,24.1667 89.5,24.5C 93.9974,26.5004 95.4974,29.8337 94,34.5C 92.2111,36.229 90.0444,36.8957 87.5,36.5C 88.4737,34.9147 89.9737,33.9147 92,33.5C 92.49,32.2068 92.6567,30.8734 92.5,29.5C 90.8007,29.5271 89.4674,30.1938 88.5,31.5C 87.657,29.8267 86.3237,28.66 84.5,28C 80.8484,27.5014 77.1817,27.3347 73.5,27.5C 73.4443,24.4392 74.7776,22.2725 77.5,21C 83.5,20.3333 89.5,20.3333 95.5,21C 97.5408,22.3238 99.5408,23.3238 101.5,24C 100.743,22.4878 99.7433,21.1545 98.5,20C 93.7176,19.8814 89.0509,19.2148 84.5,18C 85.1667,17.3333 85.8333,16.6667 86.5,16C 91.0097,15.8542 95.343,15.0209 99.5,13.5 Z"/></g>
<g><path style="opacity:1" fill="#0981d7" d="M 99.5,13.5 C 95.343,15.0209 91.0097,15.8542 86.5,16C 85.8333,16.6667 85.1667,17.3333 84.5,18C 89.0509,19.2148 93.7176,19.8814 98.5,20C 99.7433,21.1545 100.743,22.4878 101.5,24C 99.5408,23.3238 97.5408,22.3238 95.5,21C 89.5,20.3333 83.5,20.3333 77.5,21C 74.7776,22.2725 73.4443,24.4392 73.5,27.5C 77.1817,27.3347 80.8484,27.5014 84.5,28C 86.3237,28.66 87.657,29.8267 88.5,31.5C 88.2172,32.2891 87.7172,32.9558 87,33.5C 86.6824,31.9391 85.8491,30.7724 84.5,30C 79.3537,29.6554 74.3537,28.9888 69.5,28C 66.0823,30.9148 64.749,34.4148 65.5,38.5C 71.4384,38.162 76.7717,39.9953 81.5,44C 78.9023,43.8744 76.569,42.8744 74.5,41C 65.4196,38.9858 62.0863,42.4858 64.5,51.5C 65.625,52.6522 65.625,53.6522 64.5,54.5C 62.7739,52.1799 62.1072,49.5133 62.5,46.5C 53.256,46.1268 53.256,45.1268 62.5,43.5C 62.8333,42.8333 63.1667,42.1667 63.5,41.5C 61.4527,39.9848 59.1193,39.1515 56.5,39C 56.8333,38.6667 57.1667,38.3333 57.5,38C 59.4884,37.8195 61.4884,37.9862 63.5,38.5C 64.07,34.5786 62.4033,32.412 58.5,32C 60.5568,31.6948 62.5568,31.6948 64.5,32C 65.7899,29.708 67.4565,27.708 69.5,26C 66.8333,25.3333 64.1667,24.6667 61.5,24C 65.1939,23.7221 68.8606,23.7221 72.5,24C 73.68,21.4022 75.68,19.7355 78.5,19C 76.1218,18.4888 73.7885,17.8221 71.5,17C 75.3716,16.1088 79.0382,16.6088 82.5,18.5C 84.0243,16.1421 86.0243,14.3088 88.5,13C 87.5,12.6667 86.5,12.3333 85.5,12C 88.792,11.0643 91.792,11.5643 94.5,13.5C 97.6772,11.4742 101.011,11.1409 104.5,12.5C 102.955,13.4519 101.288,13.7852 99.5,13.5 Z"/></g>
<g><path style="opacity:1" fill="#023c7e" d="M 124.5,30.5 C 124.5,29.5 124.5,28.5 124.5,27.5C 124.511,25.9826 125.177,24.8159 126.5,24C 128.74,23.023 131.073,22.523 133.5,22.5C 133.5,25.1667 133.5,27.8333 133.5,30.5C 130.5,30.5 127.5,30.5 124.5,30.5 Z"/></g>
<g><path style="opacity:0.333" fill="#0068c2" d="M 132.5,-0.5 C 133.833,-0.5 135.167,-0.5 136.5,-0.5C 136.5,18.5 136.5,37.5 136.5,56.5C 135.71,57.4013 134.71,58.0679 133.5,58.5C 133.5,58.1667 133.5,57.8333 133.5,57.5C 133.5,55.1667 133.5,52.8333 133.5,50.5C 129.613,49.9454 126.613,51.2787 124.5,54.5C 123.509,58.4454 123.176,62.4454 123.5,66.5C 122.353,62.3537 122.186,58.0204 123,53.5C 125.591,49.9518 129.091,48.6185 133.5,49.5C 133.5,48.5 133.5,47.5 133.5,46.5C 131.139,46.6741 128.806,47.0074 126.5,47.5C 126.5,46.5 126.5,45.5 126.5,44.5C 128.806,44.9926 131.139,45.3259 133.5,45.5C 133.5,43.1667 133.5,40.8333 133.5,38.5C 131.167,38.5 128.833,38.5 126.5,38.5C 126.5,37.8333 126.5,37.1667 126.5,36.5C 128.833,36.5 131.167,36.5 133.5,36.5C 133.5,35.1667 133.5,33.8333 133.5,32.5C 130.833,32.5 128.167,32.5 125.5,32.5C 125.167,31.8333 124.833,31.1667 124.5,30.5C 127.5,30.5 130.5,30.5 133.5,30.5C 133.5,27.8333 133.5,25.1667 133.5,22.5C 131.073,22.523 128.74,23.023 126.5,24C 125.177,24.8159 124.511,25.9826 124.5,27.5C 123.662,27.1583 123.328,26.4916 123.5,25.5C 125.514,21.432 128.848,19.7653 133.5,20.5C 133.795,13.4122 133.462,6.41215 132.5,-0.5 Z"/></g>
<g><path style="opacity:1" fill="#17a8f6" d="M 114.5,19.5 C 115.404,20.209 115.737,21.209 115.5,22.5C 120.11,22.5959 120.444,23.5959 116.5,25.5C 118.091,27.6326 120.091,29.2993 122.5,30.5C 121.833,31.1667 121.167,31.8333 120.5,32.5C 121.653,33.6868 121.653,34.6868 120.5,35.5C 115.802,35.9405 112.136,34.2738 109.5,30.5C 109.708,27.2487 111.208,24.9154 114,23.5C 114.49,22.2068 114.657,20.8734 114.5,19.5 Z"/></g>
<g><path style="opacity:1" fill="#013c80" d="M 57.5,26.5 C 56.925,28.4113 55.925,30.078 54.5,31.5C 51.8333,31.5 49.1667,31.5 46.5,31.5C 46.2148,29.712 46.5481,28.0453 47.5,26.5C 50.7707,27.1977 54.104,27.1977 57.5,26.5 Z"/></g>
<g><path style="opacity:1" fill="#023a7d" d="M 125.5,32.5 C 128.167,32.5 130.833,32.5 133.5,32.5C 133.5,33.8333 133.5,35.1667 133.5,36.5C 131.167,36.5 128.833,36.5 126.5,36.5C 126.567,35.0413 126.234,33.7079 125.5,32.5 Z"/></g>
<g><path style="opacity:1" fill="#043e80" d="M 54.5,32.5 C 54.5,33.8333 54.5,35.1667 54.5,36.5C 51.8333,36.5 49.1667,36.5 46.5,36.5C 46.5,35.1667 46.5,33.8333 46.5,32.5C 49.1667,32.5 51.8333,32.5 54.5,32.5 Z"/></g>
<g><path style="opacity:1" fill="#13a7f8" d="M 108.5,49.5 C 106.786,50.7384 104.786,51.405 102.5,51.5C 102.769,53.4286 102.269,55.0953 101,56.5C 100.505,54.5273 100.338,52.5273 100.5,50.5C 97.3133,48.0781 93.6466,46.4115 89.5,45.5C 89.7529,43.1727 89.0863,41.1727 87.5,39.5C 89.2199,38.066 91.2199,37.2326 93.5,37C 95.0368,35.8904 95.7035,34.3904 95.5,32.5C 99.2735,33.3297 103.107,32.9964 107,31.5C 112.954,35.074 114.621,40.074 112,46.5C 110.426,47.8476 108.593,48.5142 106.5,48.5C 104.476,47.9788 102.476,47.8122 100.5,48C 103.014,49.2525 105.68,49.7525 108.5,49.5 Z"/></g>
<g><path style="opacity:1" fill="#057fd5" d="M 110.5,15.5 C 110.833,15.5 111.167,15.5 111.5,15.5C 113.262,16.2623 114.262,17.5956 114.5,19.5C 114.657,20.8734 114.49,22.2068 114,23.5C 111.208,24.9154 109.708,27.2487 109.5,30.5C 112.136,34.2738 115.802,35.9405 120.5,35.5C 120.5,35.8333 120.5,36.1667 120.5,36.5C 118.143,36.3367 115.81,36.5034 113.5,37C 114.792,40.1653 114.792,43.332 113.5,46.5C 113.66,48.1992 113.494,49.8659 113,51.5C 111.951,49.8934 110.451,49.2267 108.5,49.5C 105.68,49.7525 103.014,49.2525 100.5,48C 102.476,47.8122 104.476,47.9788 106.5,48.5C 108.593,48.5142 110.426,47.8476 112,46.5C 114.621,40.074 112.954,35.074 107,31.5C 103.107,32.9964 99.2735,33.3297 95.5,32.5C 95.7035,34.3904 95.0368,35.8904 93.5,37C 91.2199,37.2326 89.2199,38.066 87.5,39.5C 89.0863,41.1727 89.7529,43.1727 89.5,45.5C 88.2003,46.601 87.7003,47.9343 88,49.5C 90.0795,51.1233 92.2462,52.6233 94.5,54C 91.1368,53.7328 88.3034,52.2328 86,49.5C 82.9293,51.3033 83.096,53.1366 86.5,55C 84.3849,55.5362 83.0516,54.7029 82.5,52.5C 78.3535,50.821 74.0201,49.321 69.5,48C 73.3898,47.7595 77.2231,48.2595 81,49.5C 87.583,48.3861 89.083,45.0528 85.5,39.5C 82.0706,37.1186 78.4039,35.2853 74.5,34C 78.9176,34.1976 83.2509,35.031 87.5,36.5C 90.0444,36.8957 92.2111,36.229 94,34.5C 95.4974,29.8337 93.9974,26.5004 89.5,24.5C 89.8333,24.1667 90.1667,23.8333 90.5,23.5C 93.3633,24.8635 95.3633,27.0302 96.5,30C 100.625,30.8538 104.625,30.5204 108.5,29C 109.591,26.9361 109.758,24.7695 109,22.5C 106.592,20.0439 103.759,18.2106 100.5,17C 102.635,16.3653 104.635,16.6986 106.5,18C 113.259,25.4044 114.592,24.5711 110.5,15.5 Z"/></g>
<g><path style="opacity:1" fill="#1caffc" d="M 88.5,31.5 C 89.4674,30.1938 90.8007,29.5271 92.5,29.5C 92.6567,30.8734 92.49,32.2068 92,33.5C 89.9737,33.9147 88.4737,34.9147 87.5,36.5C 83.2509,35.031 78.9176,34.1976 74.5,34C 78.4039,35.2853 82.0706,37.1186 85.5,39.5C 89.083,45.0528 87.583,48.3861 81,49.5C 77.2231,48.2595 73.3898,47.7595 69.5,48C 74.0201,49.321 78.3535,50.821 82.5,52.5C 81.5041,52.4142 80.6708,52.7476 80,53.5C 77.6308,52.4489 75.1308,51.7823 72.5,51.5C 69.9285,52.3527 67.2619,52.3527 64.5,51.5C 62.0863,42.4858 65.4196,38.9858 74.5,41C 76.569,42.8744 78.9023,43.8744 81.5,44C 76.7717,39.9953 71.4384,38.162 65.5,38.5C 64.749,34.4148 66.0823,30.9148 69.5,28C 74.3537,28.9888 79.3537,29.6554 84.5,30C 85.8491,30.7724 86.6824,31.9391 87,33.5C 87.7172,32.9558 88.2172,32.2891 88.5,31.5 Z"/></g>
<g><path style="opacity:1" fill="#15acf8" d="M 120.5,36.5 C 121.725,37.1522 122.392,38.3189 122.5,40C 122.051,42.3259 121.217,44.4926 120,46.5C 119.065,41.9982 117.731,41.6649 116,45.5C 115.329,46.2524 114.496,46.5858 113.5,46.5C 114.792,43.332 114.792,40.1653 113.5,37C 115.81,36.5034 118.143,36.3367 120.5,36.5 Z"/></g>
<g><path style="opacity:0.959" fill="#0467be" d="M 43.5,-0.5 C 44.5,-0.5 45.5,-0.5 46.5,-0.5C 46.1686,8.19221 46.502,16.8589 47.5,25.5C 48.5,24.8333 49.5,24.1667 50.5,23.5C 52.5098,25.1713 54.8431,25.838 57.5,25.5C 57.5,25.8333 57.5,26.1667 57.5,26.5C 54.104,27.1977 50.7707,27.1977 47.5,26.5C 46.5481,28.0453 46.2148,29.712 46.5,31.5C 49.1667,31.5 51.8333,31.5 54.5,31.5C 54.5,31.8333 54.5,32.1667 54.5,32.5C 51.8333,32.5 49.1667,32.5 46.5,32.5C 46.5,33.8333 46.5,35.1667 46.5,36.5C 49.1667,36.5 51.8333,36.5 54.5,36.5C 53.8902,37.391 53.5569,38.391 53.5,39.5C 52.2248,42.3962 52.2248,45.3962 53.5,48.5C 48.8573,49.8057 46.6906,52.8057 47,57.5C 49.0367,55.2941 51.2034,53.2941 53.5,51.5C 54.1667,51.5 54.5,51.8333 54.5,52.5C 51.8697,54.6281 49.3697,56.9614 47,59.5C 46.5026,62.146 46.3359,64.8127 46.5,67.5C 47.8333,67.5 49.1667,67.5 50.5,67.5C 50.5,64.5 50.5,61.5 50.5,58.5C 51.5,58.5 52.5,58.5 53.5,58.5C 52.8413,61.4552 52.5079,64.4552 52.5,67.5C 54.1667,67.5 55.8333,67.5 57.5,67.5C 57.5,64.5 57.5,61.5 57.5,58.5C 60.8806,58.5405 64.2139,58.2071 67.5,57.5C 66.7929,60.7861 66.4595,64.1194 66.5,67.5C 68.8333,67.5 71.1667,67.5 73.5,67.5C 73.3398,65.8008 73.5065,64.1341 74,62.5C 75.4813,61.5291 76.3146,60.1958 76.5,58.5C 77.1667,58.8333 77.8333,59.1667 78.5,59.5C 76.0156,61.5452 75.0156,64.2118 75.5,67.5C 78.5,67.5 81.5,67.5 84.5,67.5C 84.1496,64.5466 85.1496,62.2133 87.5,60.5C 88.1667,60.5 88.5,60.8333 88.5,61.5C 86.9192,63.1417 86.2525,65.1417 86.5,67.5C 89.1667,67.5 91.8333,67.5 94.5,67.5C 96.2646,68.4614 98.2646,68.7947 100.5,68.5C 100.714,66.8561 100.38,65.3561 99.5,64C 102.834,61.9246 106.501,61.0912 110.5,61.5C 110.5,63.5 110.5,65.5 110.5,67.5C 111.833,67.5 113.167,67.5 114.5,67.5C 114.5,68.5 114.5,69.5 114.5,70.5C 105.5,70.5 96.5,70.5 87.5,70.5C 81.1667,70.5 74.8333,70.5 68.5,70.5C 66.5,70.5 64.5,70.5 62.5,70.5C 61.8333,70.5 61.5,70.8333 61.5,71.5C 56.4841,71.9188 51.1507,71.4188 45.5,70C 44.0339,68.4478 43.0339,66.6145 42.5,64.5C 43.3213,42.7215 43.6546,21.0548 43.5,-0.5 Z"/></g>
<g><path style="opacity:1" fill="#013c7e" d="M 46.5,41.5 C 48.1667,41.5 49.8333,41.5 51.5,41.5C 51.9948,45.5032 50.4948,48.5032 47,50.5C 46.502,47.5184 46.3354,44.5184 46.5,41.5 Z"/></g>
<g><path style="opacity:1" fill="#54c5fb" d="M 106.5,12.5 C 112.971,11.9046 117.971,14.238 121.5,19.5C 121.5,20.1667 121.5,20.8333 121.5,21.5C 121.229,23.3797 121.896,24.713 123.5,25.5C 123.328,26.4916 123.662,27.1583 124.5,27.5C 124.5,28.5 124.5,29.5 124.5,30.5C 124.833,31.1667 125.167,31.8333 125.5,32.5C 126.234,33.7079 126.567,35.0413 126.5,36.5C 126.5,37.1667 126.5,37.8333 126.5,38.5C 124.637,41.5513 123.47,44.8846 123,48.5C 122.34,50.3237 121.173,51.657 119.5,52.5C 115.03,52.7827 111.03,54.2827 107.5,57C 99.3175,58.0363 91.3175,58.5363 83.5,58.5C 81.8828,59.038 80.2161,59.3713 78.5,59.5C 77.8333,59.1667 77.1667,58.8333 76.5,58.5C 73.0135,58.0946 69.6801,57.0946 66.5,55.5C 61.6506,57.4358 57.6506,56.4358 54.5,52.5C 54.5,51.8333 54.1667,51.5 53.5,51.5C 53.5,50.5 53.5,49.5 53.5,48.5C 52.2248,45.3962 52.2248,42.3962 53.5,39.5C 54.2243,43.3653 54.8909,47.3653 55.5,51.5C 58.2148,53.2643 61.2148,54.2643 64.5,54.5C 65.625,53.6522 65.625,52.6522 64.5,51.5C 67.2619,52.3527 69.9285,52.3527 72.5,51.5C 75.1308,51.7823 77.6308,52.4489 80,53.5C 80.6708,52.7476 81.5041,52.4142 82.5,52.5C 83.0516,54.7029 84.3849,55.5362 86.5,55C 83.096,53.1366 82.9293,51.3033 86,49.5C 88.3034,52.2328 91.1368,53.7328 94.5,54C 92.2462,52.6233 90.0795,51.1233 88,49.5C 87.7003,47.9343 88.2003,46.601 89.5,45.5C 93.6466,46.4115 97.3133,48.0781 100.5,50.5C 100.338,52.5273 100.505,54.5273 101,56.5C 102.269,55.0953 102.769,53.4286 102.5,51.5C 104.786,51.405 106.786,50.7384 108.5,49.5C 110.451,49.2267 111.951,49.8934 113,51.5C 113.494,49.8659 113.66,48.1992 113.5,46.5C 114.496,46.5858 115.329,46.2524 116,45.5C 117.731,41.6649 119.065,41.9982 120,46.5C 121.217,44.4926 122.051,42.3259 122.5,40C 122.392,38.3189 121.725,37.1522 120.5,36.5C 120.5,36.1667 120.5,35.8333 120.5,35.5C 121.653,34.6868 121.653,33.6868 120.5,32.5C 121.167,31.8333 121.833,31.1667 122.5,30.5C 120.091,29.2993 118.091,27.6326 116.5,25.5C 120.444,23.5959 120.11,22.5959 115.5,22.5C 115.737,21.209 115.404,20.209 114.5,19.5C 114.262,17.5956 113.262,16.2623 111.5,15.5C 110.087,14.0652 108.42,13.0652 106.5,12.5 Z"/></g>
<g><path style="opacity:1" fill="#023e81" d="M 53.5,48.5 C 53.5,49.5 53.5,50.5 53.5,51.5C 51.2034,53.2941 49.0367,55.2941 47,57.5C 46.6906,52.8057 48.8573,49.8057 53.5,48.5 Z"/></g>
<g><path style="opacity:0.693" fill="#a3a3a3" d="M 145.5,56.5 C 142.941,56.8016 140.607,56.4682 138.5,55.5C 139.794,54.7101 140.961,53.7101 142,52.5C 144.071,53.1029 145.238,54.4362 145.5,56.5 Z"/></g>
<g><path style="opacity:1" fill="#024186" d="M 126.5,38.5 C 128.833,38.5 131.167,38.5 133.5,38.5C 133.5,40.8333 133.5,43.1667 133.5,45.5C 131.139,45.3259 128.806,44.9926 126.5,44.5C 126.5,45.5 126.5,46.5 126.5,47.5C 128.806,47.0074 131.139,46.6741 133.5,46.5C 133.5,47.5 133.5,48.5 133.5,49.5C 129.091,48.6185 125.591,49.9518 123,53.5C 122.186,58.0204 122.353,62.3537 123.5,66.5C 122.71,67.4013 121.71,68.0679 120.5,68.5C 118.5,68.1667 116.5,67.8333 114.5,67.5C 113.167,67.5 111.833,67.5 110.5,67.5C 110.5,65.5 110.5,63.5 110.5,61.5C 111.714,59.075 113.714,57.575 116.5,57C 118.141,55.871 119.141,54.371 119.5,52.5C 121.173,51.657 122.34,50.3237 123,48.5C 123.47,44.8846 124.637,41.5513 126.5,38.5 Z"/></g>
<g><path style="opacity:1" fill="#043c7f" d="M 133.5,57.5 C 131.194,57.0074 128.861,56.6741 126.5,56.5C 126.198,59.0593 126.532,61.3926 127.5,63.5C 126.205,64.4884 124.872,65.4884 123.5,66.5C 123.176,62.4454 123.509,58.4454 124.5,54.5C 126.613,51.2787 129.613,49.9454 133.5,50.5C 133.5,52.8333 133.5,55.1667 133.5,57.5 Z"/></g>
<g><path style="opacity:1" fill="#a8a9ab" d="M 133.5,57.5 C 133.5,57.8333 133.5,58.1667 133.5,58.5C 131.525,60.137 129.525,61.8036 127.5,63.5C 126.532,61.3926 126.198,59.0593 126.5,56.5C 128.861,56.6741 131.194,57.0074 133.5,57.5 Z"/></g>
<g><path style="opacity:1" fill="#03a8f9" d="M 119.5,52.5 C 119.141,54.371 118.141,55.871 116.5,57C 113.714,57.575 111.714,59.075 110.5,61.5C 106.501,61.0912 102.834,61.9246 99.5,64C 100.38,65.3561 100.714,66.8561 100.5,68.5C 98.2646,68.7947 96.2646,68.4614 94.5,67.5C 94.3416,63.5823 92.3416,61.5823 88.5,61.5C 88.5,60.8333 88.1667,60.5 87.5,60.5C 85.9382,60.2671 84.6049,59.6005 83.5,58.5C 91.3175,58.5363 99.3175,58.0363 107.5,57C 111.03,54.2827 115.03,52.7827 119.5,52.5 Z"/></g>
<g><path style="opacity:0.875" fill="#adadad" d="M 149.5,59.5 C 155.696,58.623 157.03,60.623 153.5,65.5C 151.808,63.7952 150.475,61.7952 149.5,59.5 Z"/></g>
<g><path style="opacity:1" fill="#023c7f" d="M 54.5,52.5 C 57.6506,56.4358 61.6506,57.4358 66.5,55.5C 69.6801,57.0946 73.0135,58.0946 76.5,58.5C 76.3146,60.1958 75.4813,61.5291 74,62.5C 73.5065,64.1341 73.3398,65.8008 73.5,67.5C 71.1667,67.5 68.8333,67.5 66.5,67.5C 66.4595,64.1194 66.7929,60.7861 67.5,57.5C 64.2139,58.2071 60.8806,58.5405 57.5,58.5C 57.5,61.5 57.5,64.5 57.5,67.5C 55.8333,67.5 54.1667,67.5 52.5,67.5C 52.5079,64.4552 52.8413,61.4552 53.5,58.5C 52.5,58.5 51.5,58.5 50.5,58.5C 50.5,61.5 50.5,64.5 50.5,67.5C 49.1667,67.5 47.8333,67.5 46.5,67.5C 46.3359,64.8127 46.5026,62.146 47,59.5C 49.3697,56.9614 51.8697,54.6281 54.5,52.5 Z"/></g>
<g><path style="opacity:1" fill="#013b7d" d="M 83.5,58.5 C 84.6049,59.6005 85.9382,60.2671 87.5,60.5C 85.1496,62.2133 84.1496,64.5466 84.5,67.5C 81.5,67.5 78.5,67.5 75.5,67.5C 75.0156,64.2118 76.0156,61.5452 78.5,59.5C 80.2161,59.3713 81.8828,59.038 83.5,58.5 Z"/></g>
<g><path style="opacity:1" fill="#023e81" d="M 58.5,59.5 C 60.5,59.5 62.5,59.5 64.5,59.5C 64.5,62.1667 64.5,64.8333 64.5,67.5C 62.8333,67.5 61.1667,67.5 59.5,67.5C 59.5987,64.7628 59.2653,62.0961 58.5,59.5 Z"/></g>
<g><path style="opacity:1" fill="#023b7d" d="M 88.5,61.5 C 92.3416,61.5823 94.3416,63.5823 94.5,67.5C 91.8333,67.5 89.1667,67.5 86.5,67.5C 86.2525,65.1417 86.9192,63.1417 88.5,61.5 Z"/></g>
<g><path style="opacity:0.998" fill="#393938" d="M 138.5,55.5 C 140.607,56.4682 142.941,56.8016 145.5,56.5C 146.872,57.5116 148.205,58.5116 149.5,59.5C 150.475,61.7952 151.808,63.7952 153.5,65.5C 154.401,66.2905 155.068,67.2905 155.5,68.5C 148.514,68.331 146.847,71.1643 150.5,77C 152.473,77.4955 154.473,77.6621 156.5,77.5C 156.141,80.2367 154.807,82.2367 152.5,83.5C 150.326,83.7497 148.659,84.7497 147.5,86.5C 145.847,86.6596 144.514,87.3263 143.5,88.5C 140.318,88.584 137.985,89.9173 136.5,92.5C 135.833,92.5 135.167,92.5 134.5,92.5C 134.425,85.6436 131.425,83.6436 125.5,86.5C 124.206,87.2899 123.039,88.2899 122,89.5C 121.722,88.5842 121.222,87.9175 120.5,87.5C 121.366,84.1499 119.866,82.1499 116,81.5C 114.699,81.6387 113.866,82.3054 113.5,83.5C 112.391,83.4431 111.391,83.1098 110.5,82.5C 110.371,80.7839 110.038,79.1172 109.5,77.5C 111.191,76.1363 112.858,74.803 114.5,73.5C 116.54,71.823 118.54,70.1563 120.5,68.5C 121.71,68.0679 122.71,67.4013 123.5,66.5C 124.872,65.4884 126.205,64.4884 127.5,63.5C 129.525,61.8036 131.525,60.137 133.5,58.5C 134.71,58.0679 135.71,57.4013 136.5,56.5C 137.167,56.1667 137.833,55.8333 138.5,55.5 Z"/></g>
<g><path style="opacity:1" fill="#acacac" d="M 135.5,60.5 C 144.442,60.5465 146.442,64.0465 141.5,71C 137.26,72.5389 134.593,71.2056 133.5,67C 134.274,64.8458 134.941,62.6792 135.5,60.5 Z"/></g>
<g><path style="opacity:0.946" fill="#aeaeae" d="M 155.5,68.5 C 157.654,69.8238 159.321,71.6571 160.5,74C 159.355,75.4021 158.022,76.5688 156.5,77.5C 154.473,77.6621 152.473,77.4955 150.5,77C 146.847,71.1643 148.514,68.331 155.5,68.5 Z"/></g>
<g><path style="opacity:1" fill="#a9aaac" d="M 114.5,67.5 C 116.5,67.8333 118.5,68.1667 120.5,68.5C 118.54,70.1563 116.54,71.823 114.5,73.5C 114.5,72.5 114.5,71.5 114.5,70.5C 114.5,69.5 114.5,68.5 114.5,67.5 Z"/></g>
<g><path style="opacity:1" fill="#aeaeae" d="M 120.5,71.5 C 122.989,71.2978 125.323,71.7978 127.5,73C 128.98,78.1884 126.98,80.1884 121.5,79C 120.565,76.6194 120.232,74.1194 120.5,71.5 Z"/></g>
<g><path style="opacity:1" fill="#e4f7fe" d="M 68.5,70.5 C 74.8333,70.5 81.1667,70.5 87.5,70.5C 83.6749,72.1642 79.6749,73.8309 75.5,75.5C 74.5019,77.4899 73.5019,79.4899 72.5,81.5C 74.8754,88.2871 75.8754,95.2871 75.5,102.5C 74.2921,101.766 72.9587,101.433 71.5,101.5C 71.5,103.167 71.5,104.833 71.5,106.5C 71.1667,107.167 70.8333,107.833 70.5,108.5C 68.9415,104.102 67.7749,99.4357 67,94.5C 65.1667,96.3333 63.3333,98.1667 61.5,100C 60.451,100.492 59.451,100.326 58.5,99.5C 58.1667,100 57.8333,100.5 57.5,101C 60.1063,104.046 61.773,107.546 62.5,111.5C 71.823,109.658 75.6563,113.325 74,122.5C 70.9607,123.603 68.1274,125.103 65.5,127C 63.5,127.667 61.5,127.667 59.5,127C 55.2886,120.747 51.4553,114.247 48,107.5C 46.6323,104.262 46.2989,100.928 47,97.5C 51.0461,85.9603 58.2128,76.9603 68.5,70.5 Z M 64.5,100.5 C 65.6291,102.628 65.7958,104.961 65,107.5C 63.1929,105.26 63.0262,102.927 64.5,100.5 Z"/></g>
<g><path style="opacity:1" fill="#a9a9a9" d="M 138.5,75.5 C 143.718,76.2222 145.385,79.0555 143.5,84C 135.63,84.4149 133.963,81.5816 138.5,75.5 Z"/></g>
<g><path style="opacity:1" fill="#ababab" d="M 109.5,77.5 C 110.038,79.1172 110.371,80.7839 110.5,82.5C 109.327,85.7537 106.994,86.9204 103.5,86C 102.748,85.3292 102.414,84.4959 102.5,83.5C 101.245,77.0817 103.578,75.0817 109.5,77.5 Z"/></g>
<g><path style="opacity:1" fill="#a8a8a8" d="M 120.5,87.5 C 115.519,90.9962 113.186,89.6629 113.5,83.5C 113.866,82.3054 114.699,81.6387 116,81.5C 119.866,82.1499 121.366,84.1499 120.5,87.5 Z"/></g>
<g><path style="opacity:0.707" fill="#b0b0b0" d="M 152.5,83.5 C 152.5,84.8333 152.5,86.1667 152.5,87.5C 150.784,87.3713 149.117,87.038 147.5,86.5C 148.659,84.7497 150.326,83.7497 152.5,83.5 Z"/></g>
<g><path style="opacity:1" fill="#383837" d="M 110.5,82.5 C 111.391,83.1098 112.391,83.4431 113.5,83.5C 113.186,89.6629 115.519,90.9962 120.5,87.5C 121.222,87.9175 121.722,88.5842 122,89.5C 123.039,88.2899 124.206,87.2899 125.5,86.5C 125.322,87.6948 124.989,88.8615 124.5,90C 125.65,91.981 126.984,93.8143 128.5,95.5C 127.391,95.5569 126.391,95.8902 125.5,96.5C 124.326,94.0029 122.326,92.6695 119.5,92.5C 114.494,93.4177 110.327,95.751 107,99.5C 106.297,101.929 106.463,104.262 107.5,106.5C 105.847,106.66 104.514,107.326 103.5,108.5C 100.833,109.833 98.1667,111.167 95.5,112.5C 92.1225,108.279 89.1225,108.612 86.5,113.5C 87.1925,114.518 87.8592,115.518 88.5,116.5C 84.7492,117.973 81.0825,119.64 77.5,121.5C 78.5464,115.255 76.213,110.922 70.5,108.5C 70.8333,107.833 71.1667,107.167 71.5,106.5C 73.754,105.876 75.4206,104.543 76.5,102.5C 78.7952,101.525 80.7952,100.192 82.5,98.5C 86.337,102.439 89.337,101.772 91.5,96.5C 91.2483,94.9271 90.5817,93.5938 89.5,92.5C 94.0076,89.7467 98.3409,86.7467 102.5,83.5C 102.414,84.4959 102.748,85.3292 103.5,86C 106.994,86.9204 109.327,85.7537 110.5,82.5 Z"/></g>
<g><path style="opacity:1" fill="#c7eefd" d="M 87.5,70.5 C 96.5,70.5 105.5,70.5 114.5,70.5C 114.5,71.5 114.5,72.5 114.5,73.5C 112.858,74.803 111.191,76.1363 109.5,77.5C 103.578,75.0817 101.245,77.0817 102.5,83.5C 98.3409,86.7467 94.0076,89.7467 89.5,92.5C 87.4727,92.3379 85.4727,92.5045 83.5,93C 82.926,94.9193 82.5926,96.7526 82.5,98.5C 80.7952,100.192 78.7952,101.525 76.5,102.5C 76.1667,102.5 75.8333,102.5 75.5,102.5C 75.8754,95.2871 74.8754,88.2871 72.5,81.5C 73.5019,79.4899 74.5019,77.4899 75.5,75.5C 79.6749,73.8309 83.6749,72.1642 87.5,70.5 Z"/></g>
<g><path style="opacity:1" fill="#aaaaaa" d="M 134.5,92.5 C 134.5,93.1667 134.5,93.8333 134.5,94.5C 133.5,94.5 132.5,94.5 131.5,94.5C 130.391,94.5569 129.391,94.8902 128.5,95.5C 126.984,93.8143 125.65,91.981 124.5,90C 124.989,88.8615 125.322,87.6948 125.5,86.5C 131.425,83.6436 134.425,85.6436 134.5,92.5 Z"/></g>
<g><path style="opacity:0.705" fill="#afafaf" d="M 143.5,88.5 C 142.962,90.1172 142.629,91.7839 142.5,93.5C 140.5,93.1667 138.5,92.8333 136.5,92.5C 137.985,89.9173 140.318,88.584 143.5,88.5 Z"/></g>
<g><path style="opacity:1" fill="#afafaf" d="M 102.5,88.5 C 107.86,89.2833 109.194,91.7833 106.5,96C 104.888,96.7203 103.388,96.5536 102,95.5C 101.297,93.0709 101.463,90.7375 102.5,88.5 Z"/></g>
<g><path style="opacity:1" fill="#aeafb0" d="M 89.5,92.5 C 90.5817,93.5938 91.2483,94.9271 91.5,96.5C 89.337,101.772 86.337,102.439 82.5,98.5C 82.5926,96.7526 82.926,94.9193 83.5,93C 85.4727,92.5045 87.4727,92.3379 89.5,92.5 Z"/></g>
<g><path style="opacity:1" fill="#ababab" d="M 95.5,98.5 C 99.6307,98.5068 101.964,100.673 102.5,105C 100.085,107.597 97.2521,108.097 94,106.5C 93.1093,103.502 93.6093,100.836 95.5,98.5 Z"/></g>
<g><path style="opacity:1" fill="#a9a9a9" d="M 75.5,102.5 C 75.8333,102.5 76.1667,102.5 76.5,102.5C 75.4206,104.543 73.754,105.876 71.5,106.5C 71.5,104.833 71.5,103.167 71.5,101.5C 72.9587,101.433 74.2921,101.766 75.5,102.5 Z"/></g>
<g><path style="opacity:1" fill="#aaaaaa" d="M 78.5,103.5 C 85.004,103.138 86.6707,105.638 83.5,111C 78.2927,111.117 76.6261,108.617 78.5,103.5 Z"/></g>
<g><path style="opacity:0.848" fill="#59bff0" d="M 125.5,96.5 C 125.663,98.8568 125.497,101.19 125,103.5C 123.815,105.559 122.648,105.726 121.5,104C 124.298,100.204 123.631,97.0377 119.5,94.5C 117.333,95.9479 115,97.1146 112.5,98C 109.542,100.128 108.876,102.794 110.5,106C 113.525,106.133 116.192,107.133 118.5,109C 129.687,110.313 134.02,105.48 131.5,94.5C 132.5,94.5 133.5,94.5 134.5,94.5C 137.135,105.35 132.968,111.35 122,112.5C 119.207,112.695 116.707,112.029 114.5,110.5C 113.324,121.33 112.324,132.163 111.5,143C 111.645,143.772 111.978,144.439 112.5,145C 111.179,156.625 110.512,168.125 110.5,179.5C 109.5,179.5 108.5,179.5 107.5,179.5C 107.97,157.309 108.97,135.142 110.5,113C 110.556,110.426 109.556,108.593 107.5,107.5C 107.5,107.167 107.5,106.833 107.5,106.5C 106.463,104.262 106.297,101.929 107,99.5C 110.327,95.751 114.494,93.4177 119.5,92.5C 122.326,92.6695 124.326,94.0029 125.5,96.5 Z"/></g>
<g><path style="opacity:1" fill="#dff5fd" d="M 125.5,96.5 C 126.391,95.8902 127.391,95.5569 128.5,95.5C 129.391,94.8902 130.391,94.5569 131.5,94.5C 134.02,105.48 129.687,110.313 118.5,109C 116.192,107.133 113.525,106.133 110.5,106C 108.876,102.794 109.542,100.128 112.5,98C 115,97.1146 117.333,95.9479 119.5,94.5C 123.631,97.0377 124.298,100.204 121.5,104C 122.648,105.726 123.815,105.559 125,103.5C 125.497,101.19 125.663,98.8568 125.5,96.5 Z"/></g>
<g><path style="opacity:1" fill="#a8aaab" d="M 95.5,112.5 C 94.6993,114.042 94.366,115.708 94.5,117.5C 92.4352,117.483 90.4352,117.15 88.5,116.5C 87.8592,115.518 87.1925,114.518 86.5,113.5C 89.1225,108.612 92.1225,108.279 95.5,112.5 Z"/></g>
<g><path style="opacity:1" fill="#bfeafb" d="M 103.5,108.5 C 102.894,116.475 102.227,124.475 101.5,132.5C 98.717,135.428 95.717,135.095 92.5,131.5C 90.674,131.92 88.674,131.92 86.5,131.5C 86.5,132.833 86.5,134.167 86.5,135.5C 84.5,135.5 82.5,135.5 80.5,135.5C 79.9951,132.479 79.3284,129.479 78.5,126.5C 78.2528,125.287 77.5862,124.62 76.5,124.5C 76.5569,123.391 76.8902,122.391 77.5,121.5C 81.0825,119.64 84.7492,117.973 88.5,116.5C 90.4352,117.15 92.4352,117.483 94.5,117.5C 94.366,115.708 94.6993,114.042 95.5,112.5C 98.1667,111.167 100.833,109.833 103.5,108.5 Z"/></g>
<g><path style="opacity:0.911" fill="#3a3837" d="M 50.5,119.5 C 52.4741,121.428 53.9741,123.761 55,126.5C 56.6379,128.734 58.8045,130.067 61.5,130.5C 60.252,134.605 57.5853,136.438 53.5,136C 48.9551,132.089 46.7885,127.255 47,121.5C 48.1127,120.695 49.2794,120.028 50.5,119.5 Z"/></g>
<g><path style="opacity:0.787" fill="#57beef" d="M 62.5,70.5 C 64.5,70.5 66.5,70.5 68.5,70.5C 58.2128,76.9603 51.0461,85.9603 47,97.5C 46.2989,100.928 46.6323,104.262 48,107.5C 51.4553,114.247 55.2886,120.747 59.5,127C 61.5,127.667 63.5,127.667 65.5,127C 68.1274,125.103 70.9607,123.603 74,122.5C 75.6563,113.325 71.823,109.658 62.5,111.5C 61.773,107.546 60.1063,104.046 57.5,101C 57.8333,100.5 58.1667,100 58.5,99.5C 59.451,100.326 60.451,100.492 61.5,100C 63.3333,98.1667 65.1667,96.3333 67,94.5C 67.7749,99.4357 68.9415,104.102 70.5,108.5C 76.213,110.922 78.5464,115.255 77.5,121.5C 76.8902,122.391 76.5569,123.391 76.5,124.5C 74.6943,125.024 73.0276,125.691 71.5,126.5C 70.8353,129.314 70.502,132.314 70.5,135.5C 71.4119,150.158 72.0785,164.825 72.5,179.5C 71.5,179.5 70.5,179.5 69.5,179.5C 68.6423,162.645 67.8089,145.978 67,129.5C 65.3005,130.406 63.4672,130.739 61.5,130.5C 58.8045,130.067 56.6379,128.734 55,126.5C 53.9741,123.761 52.4741,121.428 50.5,119.5C 41.3496,107.628 41.1829,95.6277 50,83.5C 53.3635,78.9715 57.1969,74.9715 61.5,71.5C 62.1667,71.5 62.5,71.1667 62.5,70.5 Z M 64.5,100.5 C 63.0262,102.927 63.1929,105.26 65,107.5C 65.7958,104.961 65.6291,102.628 64.5,100.5 Z"/></g>
<g><path style="opacity:1" fill="#d3f2fe" d="M 107.5,106.5 C 107.5,106.833 107.5,107.167 107.5,107.5C 105.853,119.464 104.186,131.464 102.5,143.5C 102.167,143.833 101.833,144.167 101.5,144.5C 100.205,143.902 98.8721,143.402 97.5,143C 97.8333,142.667 98.1667,142.333 98.5,142C 96.3215,141.558 95.6548,140.558 96.5,139C 93.2795,134.022 89.6128,133.522 85.5,137.5C 83.4616,140.211 83.4616,142.711 85.5,145C 84.8333,147 84.1667,149 83.5,151C 83.8333,151.333 84.1667,151.667 84.5,152C 83.4258,152.739 82.7591,153.739 82.5,155C 83.3279,160.829 83.3279,166.495 82.5,172C 81.5509,172.617 80.7175,172.451 80,171.5C 79.6966,169.112 78.8633,166.945 77.5,165C 77.2432,163.629 77.5765,162.129 78.5,160.5C 78.4712,158.971 77.8045,157.804 76.5,157C 78.5127,156.125 78.5127,154.791 76.5,153C 76.8333,152.667 77.1667,152.333 77.5,152C 76.7069,148.589 76.2069,145.089 76,141.5C 75.5,141 75,140.5 74.5,140C 76.3717,134.709 75.3717,130.209 71.5,126.5C 73.0276,125.691 74.6943,125.024 76.5,124.5C 77.5862,124.62 78.2528,125.287 78.5,126.5C 79.3284,129.479 79.9951,132.479 80.5,135.5C 82.5,135.5 84.5,135.5 86.5,135.5C 86.5,134.167 86.5,132.833 86.5,131.5C 88.674,131.92 90.674,131.92 92.5,131.5C 95.717,135.095 98.717,135.428 101.5,132.5C 102.227,124.475 102.894,116.475 103.5,108.5C 104.514,107.326 105.847,106.66 107.5,106.5 Z"/></g>
<g><path style="opacity:1" fill="#e1f6fe" d="M 107.5,107.5 C 109.556,108.593 110.556,110.426 110.5,113C 108.97,135.142 107.97,157.309 107.5,179.5C 101.833,179.5 96.1667,179.5 90.5,179.5C 90.1776,166.587 90.5109,153.754 91.5,141C 91,140.5 90.5,140 90,139.5C 88.5197,152.675 88.0197,166.008 88.5,179.5C 83.1667,179.5 77.8333,179.5 72.5,179.5C 72.0785,164.825 71.4119,150.158 70.5,135.5C 70.502,132.314 70.8353,129.314 71.5,126.5C 75.3717,130.209 76.3717,134.709 74.5,140C 75,140.5 75.5,141 76,141.5C 76.2069,145.089 76.7069,148.589 77.5,152C 77.1667,152.333 76.8333,152.667 76.5,153C 78.5127,154.791 78.5127,156.125 76.5,157C 77.8045,157.804 78.4712,158.971 78.5,160.5C 77.5765,162.129 77.2432,163.629 77.5,165C 78.8633,166.945 79.6966,169.112 80,171.5C 80.7175,172.451 81.5509,172.617 82.5,172C 83.3279,166.495 83.3279,160.829 82.5,155C 82.7591,153.739 83.4258,152.739 84.5,152C 84.1667,151.667 83.8333,151.333 83.5,151C 84.1667,149 84.8333,147 85.5,145C 83.4616,142.711 83.4616,140.211 85.5,137.5C 89.6128,133.522 93.2795,134.022 96.5,139C 95.6548,140.558 96.3215,141.558 98.5,142C 98.1667,142.333 97.8333,142.667 97.5,143C 98.8721,143.402 100.205,143.902 101.5,144.5C 101.833,144.167 102.167,143.833 102.5,143.5C 104.186,131.464 105.853,119.464 107.5,107.5 Z"/></g>
<g><path style="opacity:1" fill="#44bbef" d="M 90.5,179.5 C 89.8333,179.5 89.1667,179.5 88.5,179.5C 88.0197,166.008 88.5197,152.675 90,139.5C 90.5,140 91,140.5 91.5,141C 90.5109,153.754 90.1776,166.587 90.5,179.5 Z"/></g>
</svg>
