<?xml version="1.0" encoding="UTF-8"?>
<!DOCTYPE svg PUBLIC "-//W3C//DTD SVG 1.1//EN" "http://www.w3.org/Graphics/SVG/1.1/DTD/svg11.dtd">
<svg xmlns="http://www.w3.org/2000/svg" version="1.1" width="180px" height="180px" style="shape-rendering:geometricPrecision; text-rendering:geometricPrecision; image-rendering:optimizeQuality; fill-rule:evenodd; clip-rule:evenodd" xmlns:xlink="http://www.w3.org/1999/xlink">
<g><path style="opacity:1" fill="#fdfdfc" d="M 98.5,143.5 C 91.7015,140.746 89.3682,142.746 91.5,149.5C 91.1667,149.5 90.8333,149.5 90.5,149.5C 87.4496,148.705 84.4496,147.705 81.5,146.5C 80.8165,146.863 80.1499,147.196 79.5,147.5C 61.4585,145.739 49.2918,136.405 43,119.5C 42.5065,117.866 42.3398,116.199 42.5,114.5C 43.1049,110.685 43.1049,107.018 42.5,103.5C 44.8333,105.167 46.8333,107.167 48.5,109.5C 47.8826,109.611 47.3826,109.944 47,110.5C 46.3333,113.5 46.3333,116.5 47,119.5C 47.9653,121.26 49.132,121.594 50.5,120.5C 51.3928,117.916 51.7261,115.249 51.5,112.5C 52.803,114.142 54.1363,115.809 55.5,117.5C 54.8826,117.611 54.3826,117.944 54,118.5C 53.1786,121.554 53.3452,124.554 54.5,127.5C 56.2289,125.149 56.8956,122.482 56.5,119.5C 57.5,120.167 58.5,120.833 59.5,121.5C 59.0345,127.604 61.7012,131.271 67.5,132.5C 68.0685,126.648 65.7352,122.648 60.5,120.5C 60.1667,119.833 59.8333,119.167 59.5,118.5C 63.8691,119.077 67.8691,118.243 71.5,116C 66.7746,113.285 61.7746,112.785 56.5,114.5C 55.5116,113.205 54.5116,111.872 53.5,110.5C 55.5401,110.436 57.8734,110.269 60.5,110C 62.2909,109.585 63.6243,108.585 64.5,107C 62.5413,105.904 60.3747,105.404 58,105.5C 55.1345,105.3 52.6345,105.967 50.5,107.5C 47.808,105.138 45.1413,102.804 42.5,100.5C 46.1306,101.412 49.7973,101.579 53.5,101C 57.5276,96.4445 56.1943,94.2778 49.5,94.5C 47.0678,94.8864 44.7345,95.5531 42.5,96.5C 41.6091,95.7387 40.9424,94.7387 40.5,93.5C 43.3905,92.1627 44.0572,90.1627 42.5,87.5C 44.4828,82.8212 42.8161,80.1545 37.5,79.5C 34.7733,81.3075 32.7733,80.8075 31.5,78C 39.3791,65.6553 49.7125,63.1553 62.5,70.5C 66.6749,75.8379 71.0082,81.0046 75.5,86C 77.2785,85.956 78.9452,85.2893 80.5,84C 90.7389,75.0917 99.5723,64.925 107,53.5C 111.997,40.5111 116.997,27.5111 122,14.5C 125.782,9.93997 128.115,10.6066 129,16.5C 129.333,23.1667 129.667,29.8333 130,36.5C 132.167,35.6667 133.667,34.1667 134.5,32C 135.167,31.3333 135.833,31.3333 136.5,32C 137.919,38.7209 138.919,45.5542 139.5,52.5C 140.941,51.1349 142.274,49.6349 143.5,48C 144.635,47.2506 145.635,47.4173 146.5,48.5C 147.457,54.439 147.79,60.439 147.5,66.5C 149.484,66.6168 151.15,65.9501 152.5,64.5C 155.59,86.7524 148.257,104.586 130.5,118C 110.786,125.903 92.4527,123.569 75.5,111C 74.0563,110.219 72.723,110.386 71.5,111.5C 84.0708,121.447 98.4041,126.28 114.5,126C 131.352,132.767 148.686,135.601 166.5,134.5C 166.617,136.484 165.95,138.15 164.5,139.5C 160.019,141.55 155.352,143.217 150.5,144.5C 149.614,145.325 149.281,146.325 149.5,147.5C 153.678,147.668 157.345,149.002 160.5,151.5C 160.291,152.086 159.957,152.586 159.5,153C 155.427,153.512 151.427,154.345 147.5,155.5C 150.167,157.5 152.833,159.5 155.5,161.5C 150.457,162.553 145.457,162.72 140.5,162C 140.167,162.333 139.833,162.667 139.5,163C 141.605,164.455 143.605,165.955 145.5,167.5C 140.642,168.292 135.975,167.459 131.5,165C 119.811,160.668 110.144,153.668 102.5,144C 101.207,143.51 99.8734,143.343 98.5,143.5 Z"/></g>
<g><path style="opacity:0.919" fill="#aeafb8" d="M 102.5,149.5 C 102.5,149.167 102.5,148.833 102.5,148.5C 102.5,147.833 102.167,147.5 101.5,147.5C 100.5,146.167 99.5,144.833 98.5,143.5C 99.8734,143.343 101.207,143.51 102.5,144C 110.144,153.668 119.811,160.668 131.5,165C 135.975,167.459 140.642,168.292 145.5,167.5C 143.605,165.955 141.605,164.455 139.5,163C 139.833,162.667 140.167,162.333 140.5,162C 145.457,162.72 150.457,162.553 155.5,161.5C 152.833,159.5 150.167,157.5 147.5,155.5C 151.427,154.345 155.427,153.512 159.5,153C 159.957,152.586 160.291,152.086 160.5,151.5C 157.345,149.002 153.678,147.668 149.5,147.5C 149.281,146.325 149.614,145.325 150.5,144.5C 155.352,143.217 160.019,141.55 164.5,139.5C 165.95,138.15 166.617,136.484 166.5,134.5C 148.686,135.601 131.352,132.767 114.5,126C 98.4041,126.28 84.0708,121.447 71.5,111.5C 72.723,110.386 74.0563,110.219 75.5,111C 92.4527,123.569 110.786,125.903 130.5,118C 148.257,104.586 155.59,86.7524 152.5,64.5C 151.15,65.9501 149.484,66.6168 147.5,66.5C 147.79,60.439 147.457,54.439 146.5,48.5C 145.635,47.4173 144.635,47.2506 143.5,48C 142.274,49.6349 140.941,51.1349 139.5,52.5C 138.919,45.5542 137.919,38.7209 136.5,32C 135.833,31.3333 135.167,31.3333 134.5,32C 133.667,34.1667 132.167,35.6667 130,36.5C 129.667,29.8333 129.333,23.1667 129,16.5C 128.115,10.6066 125.782,9.93997 122,14.5C 116.997,27.5111 111.997,40.5111 107,53.5C 99.5723,64.925 90.7389,75.0917 80.5,84C 78.9452,85.2893 77.2785,85.956 75.5,86C 71.0082,81.0046 66.6749,75.8379 62.5,70.5C 49.7125,63.1553 39.3791,65.6553 31.5,78C 32.7733,80.8075 34.7733,81.3075 37.5,79.5C 42.8161,80.1545 44.4828,82.8212 42.5,87.5C 41.8333,87.1667 41.1667,86.8333 40.5,86.5C 40.5,85.1667 40.5,83.8333 40.5,82.5C 38.1789,82.2289 36.1789,82.8955 34.5,84.5C 32.3754,81.732 30.7087,81.8987 29.5,85C 30.0556,86.0111 30.7222,86.8444 31.5,87.5C 30.5,88.1667 29.5,88.8333 28.5,89.5C 27.7435,87.7334 27.0769,85.9001 26.5,84C 28.5294,73.6346 34.5294,66.6346 44.5,63C 38.8129,48.3321 35.4795,33.3321 34.5,18C 34.9388,12.8837 37.6055,10.8837 42.5,12C 47.2597,14.4237 51.093,17.9237 54,22.5C 54.1783,17.5546 56.345,16.3879 60.5,19C 63.1227,22.412 65.6227,25.912 68,29.5C 71.3834,28.0921 74.2168,28.9254 76.5,32C 78,33.5 79.5,35 81,36.5C 83.4525,41.9073 86.2858,47.0739 89.5,52C 89.1667,52.3333 88.8333,52.6667 88.5,53C 90.9946,56.8273 92.828,60.994 94,65.5C 98.7377,60.3595 102.738,54.6929 106,48.5C 109.947,36.6566 114.28,24.9899 119,13.5C 120.947,9.44315 124.114,7.94315 128.5,9C 132.088,15.2228 133.088,21.8895 131.5,29C 133.841,28.4433 136.174,28.6099 138.5,29.5C 139.35,31.6214 140.35,33.7881 141.5,36C 141.167,36.3333 140.833,36.6667 140.5,37C 141.282,39.7405 141.782,42.5738 142,45.5C 144.592,44.0183 146.925,44.3517 149,46.5C 150.224,51.3859 150.891,56.3859 151,61.5C 153.091,60.5004 154.757,61.1671 156,63.5C 158.411,79.8737 154.745,95.2071 145,109.5C 138.196,117.45 130.03,122.617 120.5,125C 135.825,130.251 151.158,132.251 166.5,131C 168.852,131.576 169.852,133.076 169.5,135.5C 169.205,137.971 168.205,140.137 166.5,142C 163.417,143.139 160.417,144.472 157.5,146C 163.292,147.238 164.625,150.238 161.5,155C 159.285,156.044 156.952,156.71 154.5,157C 158.41,158.353 159.743,160.853 158.5,164.5C 155.667,165.933 152.667,166.6 149.5,166.5C 149.703,168.39 149.037,169.89 147.5,171C 142.303,171.867 137.303,171.2 132.5,169C 121.024,164.675 111.024,158.175 102.5,149.5 Z"/></g>
<g><path style="opacity:1" fill="#fdfdfd" d="M 38.5,14.5 C 41.4665,14.9886 44.1332,16.1552 46.5,18C 49.2362,22.0524 52.2362,25.8858 55.5,29.5C 56.086,29.2907 56.586,28.9574 57,28.5C 57.3333,26.1667 57.6667,23.8333 58,21.5C 62.3681,25.7489 65.8681,30.5822 68.5,36C 68.8333,36.1667 69.1667,36.3333 69.5,36.5C 70.2978,34.9223 70.7978,33.2556 71,31.5C 74.6667,33.8333 77.6667,36.8333 80,40.5C 84.2724,48.6425 87.7724,57.1425 90.5,66C 90.3968,67.5615 90.0634,69.0615 89.5,70.5C 85.3775,75.1126 81.0441,79.4459 76.5,83.5C 72.3548,78.187 68.0214,73.0203 63.5,68C 58.6469,64.7387 53.3136,62.9054 47.5,62.5C 47.1924,61.6919 46.6924,61.0253 46,60.5C 41.345,45.4109 38.845,30.0776 38.5,14.5 Z"/></g>
<g><path style="opacity:1" fill="#1a2223" d="M 48.5,75.5 C 51.0838,76.0483 52.0838,77.715 51.5,80.5C 50.1667,80.5 48.8333,80.5 47.5,80.5C 47.366,78.7085 47.6993,77.0418 48.5,75.5 Z"/></g>
<g><path style="opacity:1" fill="#f5c5da" d="M 57.5,79.5 C 65.2258,80.9016 65.3925,83.2349 58,86.5C 54.8801,84.5327 54.7134,82.1993 57.5,79.5 Z"/></g>
<g><path style="opacity:1" fill="#f6f4f5" d="M 40.5,86.5 C 37.3915,86.2641 34.3915,86.5975 31.5,87.5C 30.7222,86.8444 30.0556,86.0111 29.5,85C 30.7087,81.8987 32.3754,81.732 34.5,84.5C 36.1789,82.8955 38.1789,82.2289 40.5,82.5C 40.5,83.8333 40.5,85.1667 40.5,86.5 Z"/></g>
<g><path style="opacity:1" fill="#deacae" d="M 40.5,86.5 C 41.1667,86.8333 41.8333,87.1667 42.5,87.5C 44.0572,90.1627 43.3905,92.1627 40.5,93.5C 40.9424,94.7387 41.6091,95.7387 42.5,96.5C 41.8333,97.5 41.1667,98.5 40.5,99.5C 39.6618,99.1583 39.3284,98.4916 39.5,97.5C 38.779,95.6182 37.779,95.2848 36.5,96.5C 35.1667,96.8333 33.8333,97.1667 32.5,97.5C 30.2362,98.2186 27.9029,98.552 25.5,98.5C 25.5,97.5 25.5,96.5 25.5,95.5C 27.1094,94.3346 27.4427,93.0012 26.5,91.5C 27.5,91.1667 28.1667,90.5 28.5,89.5C 29.5,88.8333 30.5,88.1667 31.5,87.5C 34.3915,86.5975 37.3915,86.2641 40.5,86.5 Z M 36.5,96.5 C 37.779,95.2848 38.779,95.6182 39.5,97.5C 38.391,97.4431 37.391,97.1098 36.5,96.5 Z"/></g>
<g><path style="opacity:0.787" fill="#734205" d="M 26.5,91.5 C 27.4427,93.0012 27.1094,94.3346 25.5,95.5C 21.6008,94.1271 17.6008,93.4604 13.5,93.5C 13.5,92.5 13.5,91.5 13.5,90.5C 14.9305,90.5792 16.2638,90.2458 17.5,89.5C 20.3992,90.6416 23.3992,91.3083 26.5,91.5 Z"/></g>
<g><path style="opacity:1" fill="#76a12c" d="M 42.5,100.5 C 41.8333,100.167 41.1667,99.8333 40.5,99.5C 41.1667,98.5 41.8333,97.5 42.5,96.5C 44.7345,95.5531 47.0678,94.8864 49.5,94.5C 56.1943,94.2778 57.5276,96.4445 53.5,101C 49.7973,101.579 46.1306,101.412 42.5,100.5 Z"/></g>
<g><path style="opacity:0.682" fill="#764105" d="M 36.5,96.5 C 37.391,97.1098 38.391,97.4431 39.5,97.5C 39.3284,98.4916 39.6618,99.1583 40.5,99.5C 41.1667,99.8333 41.8333,100.167 42.5,100.5C 45.1413,102.804 47.808,105.138 50.5,107.5C 51.2719,108.694 52.2719,109.694 53.5,110.5C 54.5116,111.872 55.5116,113.205 56.5,114.5C 57.0256,116.23 58.0256,117.564 59.5,118.5C 59.8333,119.167 60.1667,119.833 60.5,120.5C 60.5,121.167 60.1667,121.5 59.5,121.5C 58.5,120.833 57.5,120.167 56.5,119.5C 56.6716,118.508 56.3382,117.842 55.5,117.5C 54.1363,115.809 52.803,114.142 51.5,112.5C 50.8333,111.167 49.8333,110.167 48.5,109.5C 46.8333,107.167 44.8333,105.167 42.5,103.5C 41.1667,102.833 39.8333,102.167 38.5,101.5C 36.1475,100.66 34.1475,99.3264 32.5,97.5C 33.8333,97.1667 35.1667,96.8333 36.5,96.5 Z"/></g>
<g><path style="opacity:0.939" fill="#729e26" d="M 38.5,101.5 C 39.8333,102.167 41.1667,102.833 42.5,103.5C 43.1049,107.018 43.1049,110.685 42.5,114.5C 41.8571,116.076 40.8571,117.41 39.5,118.5C 35.9249,113.068 35.5916,107.401 38.5,101.5 Z"/></g>
<g><path style="opacity:1" fill="#719e23" d="M 53.5,110.5 C 52.2719,109.694 51.2719,108.694 50.5,107.5C 52.6345,105.967 55.1345,105.3 58,105.5C 60.3747,105.404 62.5413,105.904 64.5,107C 63.6243,108.585 62.2909,109.585 60.5,110C 57.8734,110.269 55.5401,110.436 53.5,110.5 Z"/></g>
<g><path style="opacity:1" fill="#749f28" d="M 48.5,109.5 C 49.8333,110.167 50.8333,111.167 51.5,112.5C 51.7261,115.249 51.3928,117.916 50.5,120.5C 49.132,121.594 47.9653,121.26 47,119.5C 46.3333,116.5 46.3333,113.5 47,110.5C 47.3826,109.944 47.8826,109.611 48.5,109.5 Z"/></g>
<g><path style="opacity:1" fill="#739d2d" d="M 59.5,118.5 C 58.0256,117.564 57.0256,116.23 56.5,114.5C 61.7746,112.785 66.7746,113.285 71.5,116C 67.8691,118.243 63.8691,119.077 59.5,118.5 Z"/></g>
<g><path style="opacity:1" fill="#6e9c1b" d="M 55.5,117.5 C 56.3382,117.842 56.6716,118.508 56.5,119.5C 56.8956,122.482 56.2289,125.149 54.5,127.5C 53.3452,124.554 53.1786,121.554 54,118.5C 54.3826,117.944 54.8826,117.611 55.5,117.5 Z"/></g>
<g><path style="opacity:1" fill="#6e9b24" d="M 60.5,120.5 C 65.7352,122.648 68.0685,126.648 67.5,132.5C 61.7012,131.271 59.0345,127.604 59.5,121.5C 60.1667,121.5 60.5,121.167 60.5,120.5 Z"/></g>
<g><path style="opacity:0.631" fill="#afb0b8" d="M 42.5,114.5 C 42.3398,116.199 42.5065,117.866 43,119.5C 49.2918,136.405 61.4585,145.739 79.5,147.5C 79.0679,148.71 78.4013,149.71 77.5,150.5C 58.0852,147.745 45.4185,137.079 39.5,118.5C 40.8571,117.41 41.8571,116.076 42.5,114.5 Z"/></g>
<g><path style="opacity:0.956" fill="#dc7e77" d="M 98.5,143.5 C 99.5,144.833 100.5,146.167 101.5,147.5C 102.167,147.5 102.5,147.833 102.5,148.5C 102.5,148.833 102.5,149.167 102.5,149.5C 100.364,150.37 98.5305,151.703 97,153.5C 95.6703,152.418 94.1703,151.751 92.5,151.5C 92.6716,150.508 92.3382,149.842 91.5,149.5C 89.3682,142.746 91.7015,140.746 98.5,143.5 Z"/></g>
<g><path style="opacity:0.92" fill="#dc8079" d="M 90.5,149.5 C 90.8333,150.5 91.5,151.167 92.5,151.5C 92.6744,154.845 91.341,156.012 88.5,155C 89.6039,156.131 89.2705,156.965 87.5,157.5C 86.5224,157.023 85.6891,156.357 85,155.5C 84.6667,156.5 84.3333,157.5 84,158.5C 80.5159,156.854 78.3493,154.188 77.5,150.5C 78.4013,149.71 79.0679,148.71 79.5,147.5C 80.1499,147.196 80.8165,146.863 81.5,146.5C 84.4496,147.705 87.4496,148.705 90.5,149.5 Z"/></g>
</svg>
