<?xml version="1.0" encoding="UTF-8"?>
<!DOCTYPE svg PUBLIC "-//W3C//DTD SVG 1.1//EN" "http://www.w3.org/Graphics/SVG/1.1/DTD/svg11.dtd">
<svg xmlns="http://www.w3.org/2000/svg" version="1.1" width="180px" height="180px" style="shape-rendering:geometricPrecision; text-rendering:geometricPrecision; image-rendering:optimizeQuality; fill-rule:evenodd; clip-rule:evenodd" xmlns:xlink="http://www.w3.org/1999/xlink">
<g><path style="opacity:1" fill="#1e1417" d="M 98.5,12.5 C 96.6994,10.5275 94.6994,8.86081 92.5,7.5C 88.5514,7.21317 84.5514,7.54651 80.5,8.5C 80.7373,9.79105 80.404,10.791 79.5,11.5C 78.2081,4.93135 81.0414,1.26469 88,0.5C 91.9507,1.64375 95.6174,3.31042 99,5.5C 99.7033,7.92915 99.5366,10.2625 98.5,12.5 Z"/></g>
<g><path style="opacity:1" fill="#f4c19a" d="M 98.5,12.5 C 100.972,13.6421 101.972,15.6421 101.5,18.5C 98.6134,19.7099 96.28,21.7099 94.5,24.5C 91.1667,24.5 87.8333,24.5 84.5,24.5C 81.9982,22.1568 79.4982,19.8235 77,17.5C 76.3333,16.5 76.3333,15.5 77,14.5C 78.417,13.9221 79.2504,12.9221 79.5,11.5C 80.404,10.791 80.7373,9.79105 80.5,8.5C 84.5514,7.54651 88.5514,7.21317 92.5,7.5C 94.6994,8.86081 96.6994,10.5275 98.5,12.5 Z"/></g>
<g><path style="opacity:0.9" fill="#f6a313" d="M 150.5,42.5 C 148.782,40.6363 147.615,38.3029 147,35.5C 143.864,33.836 142.697,31.1693 143.5,27.5C 140.951,27.3874 138.618,28.0541 136.5,29.5C 135.702,29.0431 135.369,28.3764 135.5,27.5C 144.863,22.0162 150.863,24.5162 153.5,35C 153.452,37.922 152.452,40.422 150.5,42.5 Z"/></g>
<g><path style="opacity:0.906" fill="#312b33" d="M 45.5,30.5 C 44.1779,30.33 43.0113,30.6634 42,31.5C 37.8068,28.7149 33.8068,29.0483 30,32.5C 29.8248,36.9424 29.6581,41.2757 29.5,45.5C 20.9119,38.2513 21.5785,31.4179 31.5,25C 37.5238,23.615 42.1905,25.4484 45.5,30.5 Z"/></g>
<g><path style="opacity:1" fill="#a3baca" d="M 84.5,24.5 C 87.8333,24.5 91.1667,24.5 94.5,24.5C 98.5,30.1667 102.5,35.8333 106.5,41.5C 106.167,42.5 105.5,43.1667 104.5,43.5C 101.87,41.3719 99.3697,39.0386 97,36.5C 96.5017,39.8168 96.335,43.1501 96.5,46.5C 91.8333,46.5 87.1667,46.5 82.5,46.5C 82.6989,43.059 82.1989,39.7256 81,36.5C 78.1696,40.3244 74.6696,43.3244 70.5,45.5C 72.0311,44.0755 71.6977,43.4088 69.5,43.5C 74.2328,37.078 79.2328,30.7447 84.5,24.5 Z"/></g>
<g><path style="opacity:1" fill="#b56446" d="M 45.5,30.5 C 45.4679,34.2625 45.1345,38.0959 44.5,42C 45.5768,42.4696 46.5768,42.3029 47.5,41.5C 47.8333,45.8333 45.8333,47.8333 41.5,47.5C 41.631,46.7611 41.4643,46.0944 41,45.5C 37.8124,46.017 34.6457,46.3503 31.5,46.5C 30.8333,46.1667 30.1667,45.8333 29.5,45.5C 29.6581,41.2757 29.8248,36.9424 30,32.5C 33.8068,29.0483 37.8068,28.7149 42,31.5C 43.0113,30.6634 44.1779,30.33 45.5,30.5 Z"/></g>
<g><path style="opacity:1" fill="#f7cdb1" d="M 135.5,27.5 C 135.369,28.3764 135.702,29.0431 136.5,29.5C 138.618,28.0541 140.951,27.3874 143.5,27.5C 142.697,31.1693 143.864,33.836 147,35.5C 147.615,38.3029 148.782,40.6363 150.5,42.5C 150.167,44.8333 148.833,46.1667 146.5,46.5C 146.631,45.6236 146.298,44.9569 145.5,44.5C 142.039,44.7675 139.039,45.7675 136.5,47.5C 132.167,47.8333 130.167,45.8333 130.5,41.5C 131.376,41.6309 132.043,41.2975 132.5,40.5C 131.017,37.5891 131.35,34.9225 133.5,32.5C 133.043,31.7025 132.376,31.3691 131.5,31.5C 131.833,29.1667 133.167,27.8333 135.5,27.5 Z"/></g>
<g><path style="opacity:1" fill="#2e2930" d="M 45.5,30.5 C 49.0289,33.1064 50.3622,36.4397 49.5,40.5C 48.8333,40.5 48.5,40.8333 48.5,41.5C 48.1667,41.5 47.8333,41.5 47.5,41.5C 46.5768,42.3029 45.5768,42.4696 44.5,42C 45.1345,38.0959 45.4679,34.2625 45.5,30.5 Z"/></g>
<g><path style="opacity:1" fill="#f6a513" d="M 131.5,31.5 C 132.376,31.3691 133.043,31.7025 133.5,32.5C 131.35,34.9225 131.017,37.5891 132.5,40.5C 132.043,41.2975 131.376,41.6309 130.5,41.5C 129.833,41.1667 129.167,40.8333 128.5,40.5C 128.777,37.446 129.777,34.446 131.5,31.5 Z"/></g>
<g><path style="opacity:0.742" fill="#fbd9ba" d="M 106.5,41.5 C 108.717,42.3686 111.05,42.702 113.5,42.5C 113.5,43.5 113.5,44.5 113.5,45.5C 110.004,46.9111 107.004,46.2444 104.5,43.5C 105.5,43.1667 106.167,42.5 106.5,41.5 Z"/></g>
<g><path style="opacity:0.842" fill="#bd6d4a" d="M 49.5,40.5 C 56.1602,41.4977 62.8269,42.4977 69.5,43.5C 71.6977,43.4088 72.0311,44.0755 70.5,45.5C 65.3586,45.9385 60.0253,45.9385 54.5,45.5C 52.1475,44.6597 50.1475,43.3264 48.5,41.5C 48.5,40.8333 48.8333,40.5 49.5,40.5 Z"/></g>
<g><path style="opacity:1" fill="#f6a31c" d="M 146.5,46.5 C 144.074,48.3795 141.408,49.7128 138.5,50.5C 137.599,49.7095 136.932,48.7095 136.5,47.5C 139.039,45.7675 142.039,44.7675 145.5,44.5C 146.298,44.9569 146.631,45.6236 146.5,46.5 Z"/></g>
<g><path style="opacity:0.788" fill="#2b2630" d="M 41.5,47.5 C 41.5,47.8333 41.5,48.1667 41.5,48.5C 41.1667,48.5 40.8333,48.5 40.5,48.5C 37.1226,48.9321 34.1226,48.2655 31.5,46.5C 34.6457,46.3503 37.8124,46.017 41,45.5C 41.4643,46.0944 41.631,46.7611 41.5,47.5 Z"/></g>
<g><path style="opacity:0.955" fill="#e00276" d="M 47.5,41.5 C 47.8333,41.5 48.1667,41.5 48.5,41.5C 50.1475,43.3264 52.1475,44.6597 54.5,45.5C 56.5278,49.5278 59.5278,52.5278 63.5,54.5C 60.8062,57.8605 57.8062,60.8605 54.5,63.5C 52.1463,60.1485 49.1463,57.4819 45.5,55.5C 44.4314,53.0313 43.0981,50.6979 41.5,48.5C 41.5,48.1667 41.5,47.8333 41.5,47.5C 45.8333,47.8333 47.8333,45.8333 47.5,41.5 Z"/></g>
<g><path style="opacity:1" fill="#e3314c" d="M 128.5,40.5 C 129.167,40.8333 129.833,41.1667 130.5,41.5C 130.167,45.8333 132.167,47.8333 136.5,47.5C 136.932,48.7095 137.599,49.7095 138.5,50.5C 137.65,55.5596 136.65,60.5596 135.5,65.5C 134.5,65.5 133.5,65.5 132.5,65.5C 133.511,61.8878 133.678,58.2211 133,54.5C 129.306,57.0291 126.14,60.0291 123.5,63.5C 121.126,60.126 118.126,57.4593 114.5,55.5C 117.971,52.8603 120.971,49.6936 123.5,46C 120.183,45.5017 116.85,45.335 113.5,45.5C 113.5,44.5 113.5,43.5 113.5,42.5C 118.425,41.3155 123.425,40.6488 128.5,40.5 Z"/></g>
<g><path style="opacity:0.764" fill="#c0714c" d="M 40.5,48.5 C 40.8333,48.5 41.1667,48.5 41.5,48.5C 43.0981,50.6979 44.4314,53.0313 45.5,55.5C 45.2232,60.2332 45.5565,64.8999 46.5,69.5C 45.5435,71.0754 44.8769,72.742 44.5,74.5C 43.1667,73.8333 42.1667,72.8333 41.5,71.5C 41.9705,69.7117 42.3038,67.8784 42.5,66C 41.3413,60.2166 40.6747,54.3833 40.5,48.5 Z"/></g>
<g><path style="opacity:0.897" fill="#793d8f" d="M 63.5,54.5 C 66.8211,59.129 70.1544,63.7957 73.5,68.5C 72.5,68.8333 71.8333,69.5 71.5,70.5C 71.1667,70.5 70.8333,70.5 70.5,70.5C 68.5614,68.0109 68.2281,68.3442 69.5,71.5C 69.1667,72.1667 68.8333,72.8333 68.5,73.5C 63.4727,70.6547 58.806,67.3214 54.5,63.5C 57.8062,60.8605 60.8062,57.8605 63.5,54.5 Z"/></g>
<g><path style="opacity:0.941" fill="#65442e" d="M 82.5,46.5 C 87.1667,46.5 91.8333,46.5 96.5,46.5C 96.2401,52.172 95.9068,57.8387 95.5,63.5C 94.2264,64.1894 94.2264,65.0228 95.5,66C 93.8659,66.4935 92.1992,66.6602 90.5,66.5C 90.7373,65.209 90.404,64.209 89.5,63.5C 89.1667,54.1667 88.8333,54.1667 88.5,63.5C 87.6588,64.9264 86.6588,66.2597 85.5,67.5C 83.5853,67.7845 81.9187,67.4511 80.5,66.5C 81.5,66.5 82.5,66.5 83.5,66.5C 83.7373,65.209 83.404,64.209 82.5,63.5C 82.5,57.8333 82.5,52.1667 82.5,46.5 Z"/></g>
<g><path style="opacity:0.91" fill="#5bafd4" d="M 114.5,55.5 C 118.126,57.4593 121.126,60.126 123.5,63.5C 118.981,66.9292 114.648,70.5959 110.5,74.5C 107.827,74.3155 107.16,73.1489 108.5,71C 107.423,70.5304 106.423,70.6971 105.5,71.5C 105.167,70.5 104.5,69.8333 103.5,69.5C 101.833,69.5 100.167,69.5 98.5,69.5C 100.5,68.8333 102.5,68.1667 104.5,67.5C 107.833,63.5 111.167,59.5 114.5,55.5 Z"/></g>
<g><path style="opacity:0.778" fill="#2997d8" d="M 82.5,63.5 C 83.404,64.209 83.7373,65.209 83.5,66.5C 82.5,66.5 81.5,66.5 80.5,66.5C 79.5084,66.6716 78.8417,66.3382 78.5,65.5C 79.9952,65.0113 81.3285,64.3446 82.5,63.5 Z"/></g>
<g><path style="opacity:0.977" fill="#c8d50e" d="M 78.5,65.5 C 78.8417,66.3382 79.5084,66.6716 80.5,66.5C 81.9187,67.4511 83.5853,67.7845 85.5,67.5C 86.7079,68.2341 88.0413,68.5674 89.5,68.5C 88.8732,72.4603 86.5399,74.7936 82.5,75.5C 82.8186,77.7505 82.3186,79.7505 81,81.5C 80.6667,81.1667 80.3333,80.8333 80,80.5C 77.9555,82.5845 75.7888,84.5845 73.5,86.5C 72.2638,87.2458 70.9305,87.5792 69.5,87.5C 69.8799,89.698 69.2132,91.3646 67.5,92.5C 68.7785,89.1362 68.6118,85.8029 67,82.5C 66.2949,84.9856 65.4616,84.9856 64.5,82.5C 64.7936,79.2459 66.127,76.5792 68.5,74.5C 69.9311,74.8807 70.7645,75.8807 71,77.5C 71.3333,77.1667 71.6667,76.8333 72,76.5C 71.8657,74.8107 71.3657,73.144 70.5,71.5C 70.5,71.1667 70.5,70.8333 70.5,70.5C 70.8333,70.5 71.1667,70.5 71.5,70.5C 73.3733,72.7431 75.3733,72.9098 77.5,71C 75.6803,70.7996 74.347,69.9663 73.5,68.5C 75.0009,67.2485 76.6675,66.2485 78.5,65.5 Z"/></g>
<g><path style="opacity:0.995" fill="#1c9fe4" d="M 88.5,63.5 C 88.8333,63.5 89.1667,63.5 89.5,63.5C 90.404,64.209 90.7373,65.209 90.5,66.5C 92.1992,66.6602 93.8659,66.4935 95.5,66C 94.2264,65.0228 94.2264,64.1894 95.5,63.5C 98.5436,64.5173 101.544,65.8506 104.5,67.5C 102.5,68.1667 100.5,68.8333 98.5,69.5C 97.4017,70.6009 97.235,71.9343 98,73.5C 101.7,75.4673 104.534,78.3006 106.5,82C 107.745,82.7914 109.078,83.2914 110.5,83.5C 111.234,84.7079 111.567,86.0413 111.5,87.5C 112.833,87.5 114.167,87.5 115.5,87.5C 115.5,88.1667 115.5,88.8333 115.5,89.5C 114.167,89.5 112.833,89.5 111.5,89.5C 111.5,91.1667 111.5,92.8333 111.5,94.5C 112.5,94.5 113.5,94.5 114.5,94.5C 114.037,97.221 113.371,99.8877 112.5,102.5C 110.983,102.511 109.816,103.177 109,104.5C 108.333,103.833 107.667,103.167 107,102.5C 106.667,104.167 106.333,105.833 106,107.5C 104.817,106.269 103.651,106.269 102.5,107.5C 103.025,108.192 103.692,108.692 104.5,109C 103.027,109.71 102.36,110.876 102.5,112.5C 100.421,112.971 98.4214,113.637 96.5,114.5C 95.596,113.791 95.2627,112.791 95.5,111.5C 93.8333,111.5 92.1667,111.5 90.5,111.5C 90.5,112.833 90.5,114.167 90.5,115.5C 89.8333,115.5 89.1667,115.5 88.5,115.5C 88.5,114.167 88.5,112.833 88.5,111.5C 86.8333,111.5 85.1667,111.5 83.5,111.5C 83.5,112.5 83.5,113.5 83.5,114.5C 79.9475,113.724 76.6142,112.391 73.5,110.5C 73.8807,109.069 74.8807,108.236 76.5,108C 75.0383,106.372 73.3717,106.205 71.5,107.5C 71.1667,107.5 70.8333,107.5 70.5,107.5C 71.7946,105.628 71.6279,103.962 70,102.5C 69.7216,103.416 69.2216,104.082 68.5,104.5C 66.2295,102.388 64.8961,99.721 64.5,96.5C 66.7166,97.227 69.0499,97.0603 71.5,96C 69.4556,95.5017 68.1223,94.335 67.5,92.5C 69.2132,91.3646 69.8799,89.698 69.5,87.5C 70.9305,87.5792 72.2638,87.2458 73.5,86.5C 75.7888,84.5845 77.9555,82.5845 80,80.5C 80.3333,80.8333 80.6667,81.1667 81,81.5C 82.3186,79.7505 82.8186,77.7505 82.5,75.5C 86.5399,74.7936 88.8732,72.4603 89.5,68.5C 88.0413,68.5674 86.7079,68.2341 85.5,67.5C 86.6588,66.2597 87.6588,64.9264 88.5,63.5 Z"/></g>
<g><path style="opacity:1" fill="#c46456" d="M 73.5,68.5 C 74.347,69.9663 75.6803,70.7996 77.5,71C 75.3733,72.9098 73.3733,72.7431 71.5,70.5C 71.8333,69.5 72.5,68.8333 73.5,68.5 Z"/></g>
<g><path style="opacity:0.959" fill="#c8d029" d="M 98.5,69.5 C 100.167,69.5 101.833,69.5 103.5,69.5C 101.235,71.9181 101.902,72.5847 105.5,71.5C 106.423,70.6971 107.423,70.5304 108.5,71C 107.16,73.1489 107.827,74.3155 110.5,74.5C 112.341,76.8485 113.674,79.5152 114.5,82.5C 113.041,82.4326 111.708,82.7659 110.5,83.5C 109.078,83.2914 107.745,82.7914 106.5,82C 104.534,78.3006 101.7,75.4673 98,73.5C 97.235,71.9343 97.4017,70.6009 98.5,69.5 Z"/></g>
<g><path style="opacity:1" fill="#f5ab9b" d="M 103.5,69.5 C 104.5,69.8333 105.167,70.5 105.5,71.5C 101.902,72.5847 101.235,71.9181 103.5,69.5 Z"/></g>
<g><path style="opacity:1" fill="#f0f1f2" d="M 41.5,71.5 C 42.1667,72.8333 43.1667,73.8333 44.5,74.5C 42.5,77.1667 40.1667,79.5 37.5,81.5C 36.7109,81.7828 36.0442,82.2828 35.5,83C 42.1583,83.4996 48.825,83.6663 55.5,83.5C 55.5,87.8333 55.5,92.1667 55.5,96.5C 47.8261,96.3336 40.1594,96.5003 32.5,97C 34.9698,97.9888 37.3032,99.1554 39.5,100.5C 41.914,101.911 43.5806,103.911 44.5,106.5C 42.9731,106.427 41.9731,107.094 41.5,108.5C 34.7285,104.786 28.7285,100.119 23.5,94.5C 24.7335,91.5352 24.7335,88.5352 23.5,85.5C 29.2326,80.4273 35.2326,75.7607 41.5,71.5 Z"/></g>
<g><path style="opacity:1" fill="#c66456" d="M 69.5,71.5 C 69.8333,71.5 70.1667,71.5 70.5,71.5C 71.3657,73.144 71.8657,74.8107 72,76.5C 71.6667,76.8333 71.3333,77.1667 71,77.5C 70.7645,75.8807 69.9311,74.8807 68.5,74.5C 68.5,74.1667 68.5,73.8333 68.5,73.5C 68.8333,72.8333 69.1667,72.1667 69.5,71.5 Z"/></g>
<g><path style="opacity:0.883" fill="#c37653" d="M 132.5,65.5 C 133.5,65.5 134.5,65.5 135.5,65.5C 135.491,67.3084 135.991,68.9751 137,70.5C 140.969,72.6468 144.469,75.3134 147.5,78.5C 146.078,79.925 144.411,80.925 142.5,81.5C 139.538,78.0359 136.371,74.7025 133,71.5C 132.505,69.5273 132.338,67.5273 132.5,65.5 Z"/></g>
<g><path style="opacity:1" fill="#121820" d="M 11.5,81.5 C 10.0172,83.4837 8.3505,85.317 6.5,87C 7.94036,91.1536 9.27369,95.3203 10.5,99.5C 5.00057,98.8315 2.00057,95.6648 1.5,90C 1.95457,83.7086 5.28791,80.8752 11.5,81.5 Z"/></g>
<g><path style="opacity:1" fill="#c0d04b" d="M 81.5,85.5 C 84.1673,83.507 85.8339,80.8403 86.5,77.5C 87.5,77.5 88.5,77.5 89.5,77.5C 88.9556,79.5795 88.1223,81.5795 87,83.5C 85.5557,85.1554 83.7224,85.822 81.5,85.5 Z"/></g>
<g><path style="opacity:0.869" fill="#141a21" d="M 169.5,96.5 C 170.541,90.9535 170.541,85.6202 169.5,80.5C 169.62,79.4138 170.287,78.7472 171.5,78.5C 173.997,79.5781 175.663,81.4115 176.5,84C 176.967,87.7632 176.467,91.5966 175,95.5C 173.322,97.5532 171.489,97.8866 169.5,96.5 Z"/></g>
<g><path style="opacity:1" fill="#b4cc60" d="M 81.5,85.5 C 81.3605,87.337 80.6939,87.6704 79.5,86.5C 79.9569,85.7025 80.6236,85.3691 81.5,85.5 Z"/></g>
<g><path style="opacity:1" fill="#c6cbcf" d="M 37.5,81.5 C 44.8379,82.2864 52.3379,82.9531 60,83.5C 61.5915,83.3948 63.0915,83.0614 64.5,82.5C 65.4616,84.9856 66.2949,84.9856 67,82.5C 68.6118,85.8029 68.7785,89.1362 67.5,92.5C 68.1223,94.335 69.4556,95.5017 71.5,96C 69.0499,97.0603 66.7166,97.227 64.5,96.5C 61.4466,96.9107 58.4466,97.5774 55.5,98.5C 49.5522,97.3764 43.5522,97.2097 37.5,98C 38.3805,98.7083 39.0472,99.5416 39.5,100.5C 37.3032,99.1554 34.9698,97.9888 32.5,97C 40.1594,96.5003 47.8261,96.3336 55.5,96.5C 55.5,92.1667 55.5,87.8333 55.5,83.5C 48.825,83.6663 42.1583,83.4996 35.5,83C 36.0442,82.2828 36.7109,81.7828 37.5,81.5 Z"/></g>
<g><path style="opacity:1" fill="#bdd049" d="M 73.5,88.5 C 76.253,90.4188 76.0863,92.0855 73,93.5C 72.5,93.1667 72,92.8333 71.5,92.5C 72.1799,91.1401 72.8466,89.8068 73.5,88.5 Z"/></g>
<g><path style="opacity:1" fill="#b86647" d="M 169.5,80.5 C 170.541,85.6202 170.541,90.9535 169.5,96.5C 166.761,96.7066 164.427,97.7066 162.5,99.5C 159.842,97.5026 157.175,95.5026 154.5,93.5C 151.952,90.1265 151.952,86.7932 154.5,83.5C 155.708,80.9558 157.708,79.6225 160.5,79.5C 160.5,78.5 160.5,77.5 160.5,76.5C 161.873,76.3433 163.207,76.51 164.5,77C 165.695,78.8524 167.362,80.019 169.5,80.5 Z"/></g>
<g><path style="opacity:1" fill="#d39c05" d="M 147.5,78.5 C 150.112,79.7787 152.445,81.4453 154.5,83.5C 151.952,86.7932 151.952,90.1265 154.5,93.5C 152.427,95.5798 150.093,97.2464 147.5,98.5C 146.33,96.7215 144.664,95.7215 142.5,95.5C 141.833,95.5 141.5,95.8333 141.5,96.5C 137.901,95.6561 134.234,95.3227 130.5,95.5C 130.5,90.8333 130.5,86.1667 130.5,81.5C 134.5,81.5 138.5,81.5 142.5,81.5C 144.411,80.925 146.078,79.925 147.5,78.5 Z"/></g>
<g><path style="opacity:1" fill="#5b4434" d="M 130.5,81.5 C 130.5,86.1667 130.5,90.8333 130.5,95.5C 125.073,95.7825 119.74,95.4491 114.5,94.5C 113.5,94.5 112.5,94.5 111.5,94.5C 111.5,92.8333 111.5,91.1667 111.5,89.5C 112.833,89.5 114.167,89.5 115.5,89.5C 117.933,89.2144 117.933,88.5477 115.5,87.5C 114.167,87.5 112.833,87.5 111.5,87.5C 111.567,86.0413 111.234,84.7079 110.5,83.5C 111.708,82.7659 113.041,82.4326 114.5,82.5C 119.772,81.5998 125.105,81.2665 130.5,81.5 Z"/></g>
<g><path style="opacity:0.924" fill="#db9865" d="M 23.5,85.5 C 24.7335,88.5352 24.7335,91.5352 23.5,94.5C 21.8213,97.1952 19.8213,99.6952 17.5,102C 16.1667,102.667 14.8333,102.667 13.5,102C 12.1667,101.333 12.1667,100.667 13.5,100C 12.552,99.5172 11.552,99.3505 10.5,99.5C 9.27369,95.3203 7.94036,91.1536 6.5,87C 8.3505,85.317 10.0172,83.4837 11.5,81.5C 12.2389,81.631 12.9056,81.4643 13.5,81C 12.1667,80.3333 12.1667,79.6667 13.5,79C 14.8333,78.3333 16.1667,78.3333 17.5,79C 19.6776,81.0107 21.6776,83.1773 23.5,85.5 Z"/></g>
<g><path style="opacity:1" fill="#b6cd50" d="M 74.5,97.5 C 75.4971,96.2875 76.4971,96.4542 77.5,98C 76.4232,98.4696 75.4232,98.3029 74.5,97.5 Z"/></g>
<g><path style="opacity:1" fill="#b4cd65" d="M 92.5,96.5 C 94.1033,96.3118 95.4366,96.8118 96.5,98C 94.5372,98.8442 93.2039,98.3442 92.5,96.5 Z"/></g>
<g><path style="opacity:1" fill="#c8d61d" d="M 81.5,99.5 C 84.4317,99.2843 87.0983,99.951 89.5,101.5C 91.7924,99.9756 93.7924,100.309 95.5,102.5C 96.4985,105.521 95.4985,107.854 92.5,109.5C 89.5307,107.333 86.1974,105.999 82.5,105.5C 81.6518,103.591 81.3184,101.591 81.5,99.5 Z"/></g>
<g><path style="opacity:1" fill="#bed14c" d="M 99.5,103.5 C 102.012,104.216 102.012,105.216 99.5,106.5C 98.913,105.767 98.913,104.767 99.5,103.5 Z"/></g>
<g><path style="opacity:0.775" fill="#d58f5f" d="M 142.5,95.5 C 144.664,95.7215 146.33,96.7215 147.5,98.5C 143.564,101.718 139.731,105.051 136,108.5C 136.034,113.186 136.534,117.852 137.5,122.5C 136.167,123.833 134.833,123.833 133.5,122.5C 133.483,117.732 132.816,113.066 131.5,108.5C 134.48,104.189 137.813,100.189 141.5,96.5C 142.167,96.5 142.5,96.1667 142.5,95.5 Z"/></g>
<g><path style="opacity:1" fill="#81adc0" d="M 112.5,102.5 C 112.833,103.167 113.167,103.833 113.5,104.5C 110.272,107.306 107.272,110.306 104.5,113.5C 103.508,113.672 102.842,113.338 102.5,112.5C 102.36,110.876 103.027,109.71 104.5,109C 103.692,108.692 103.025,108.192 102.5,107.5C 103.651,106.269 104.817,106.269 106,107.5C 106.333,105.833 106.667,104.167 107,102.5C 107.667,103.167 108.333,103.833 109,104.5C 109.816,103.177 110.983,102.511 112.5,102.5 Z"/></g>
<g><path style="opacity:0.82" fill="#f4c196" d="M 44.5,106.5 C 46.5516,108.976 46.8849,111.642 45.5,114.5C 44.5,114.5 43.5,114.5 42.5,114.5C 42.4828,112.435 42.1495,110.435 41.5,108.5C 41.9731,107.094 42.9731,106.427 44.5,106.5 Z"/></g>
<g><path style="opacity:1" fill="#cf555d" d="M 62.5,109.5 C 64.8082,111.471 67.1415,113.471 69.5,115.5C 70.525,115.897 70.6917,116.563 70,117.5C 67.9633,119.706 65.7966,121.706 63.5,123.5C 60.5,121.167 57.8333,118.5 55.5,115.5C 57.1126,112.714 58.946,110.047 61,107.5C 61.7172,108.044 62.2172,108.711 62.5,109.5 Z"/></g>
<g><path style="opacity:0.946" fill="#f39b05" d="M 113.5,104.5 C 115.5,105.833 117.167,107.5 118.5,109.5C 118.376,115.599 119.043,121.599 120.5,127.5C 118.195,126.011 115.862,124.511 113.5,123C 110.351,120.017 107.351,116.85 104.5,113.5C 107.272,110.306 110.272,107.306 113.5,104.5 Z"/></g>
<g><path style="opacity:1" fill="#f7c89f" d="M 70.5,107.5 C 68.5541,108.254 67.7207,109.588 68,111.5C 69.3756,110.295 70.5423,108.962 71.5,107.5C 73.3717,106.205 75.0383,106.372 76.5,108C 74.8807,108.236 73.8807,109.069 73.5,110.5C 72.197,112.142 70.8637,113.809 69.5,115.5C 67.1415,113.471 64.8082,111.471 62.5,109.5C 64.5248,107.804 66.5248,106.137 68.5,104.5C 69.2216,104.082 69.7216,103.416 70,102.5C 71.6279,103.962 71.7946,105.628 70.5,107.5 Z M 70.5,107.5 C 70.8333,107.5 71.1667,107.5 71.5,107.5C 70.5423,108.962 69.3756,110.295 68,111.5C 67.7207,109.588 68.5541,108.254 70.5,107.5 Z"/></g>
<g><path style="opacity:0.997" fill="#f49c16" d="M 120.5,111.5 C 123.64,113.728 126.306,116.395 128.5,119.5C 129.167,125.167 129.833,130.833 130.5,136.5C 128.735,137.461 126.735,137.795 124.5,137.5C 122.39,128.965 121.057,120.298 120.5,111.5 Z"/></g>
<g><path style="opacity:0.443" fill="#163c6e" d="M 88.5,115.5 C 89.7498,120.64 90.4165,120.64 90.5,115.5C 90.5,114.167 90.5,112.833 90.5,111.5C 92.1667,111.5 93.8333,111.5 95.5,111.5C 95.2627,112.791 95.596,113.791 96.5,114.5C 96.5,120.167 96.5,125.833 96.5,131.5C 91.8333,131.5 87.1667,131.5 82.5,131.5C 82.313,125.788 82.6463,120.121 83.5,114.5C 83.5,113.5 83.5,112.5 83.5,111.5C 85.1667,111.5 86.8333,111.5 88.5,111.5C 88.5,112.833 88.5,114.167 88.5,115.5 Z M 88.5,115.5 C 89.1667,115.5 89.8333,115.5 90.5,115.5C 90.4165,120.64 89.7498,120.64 88.5,115.5 Z"/></g>
<g><path style="opacity:0.967" fill="#f19faf" d="M 42.5,114.5 C 43.5,114.5 44.5,114.5 45.5,114.5C 45.335,117.85 45.5017,121.183 46,124.5C 49.6936,121.971 52.8603,118.971 55.5,115.5C 57.8333,118.5 60.5,121.167 63.5,123.5C 60.5769,126.459 57.9103,129.625 55.5,133C 58.8881,133.659 62.2214,133.492 65.5,132.5C 65.5,133.5 65.5,134.5 65.5,135.5C 60.6055,136.879 55.6055,137.879 50.5,138.5C 49.8333,138.167 49.1667,137.833 48.5,137.5C 48.8333,133.167 46.8333,131.167 42.5,131.5C 41.6618,131.158 41.3284,130.492 41.5,129.5C 41.6133,124.482 41.9466,119.482 42.5,114.5 Z"/></g>
<g><path style="opacity:0.612" fill="#63a0be" d="M 118.5,109.5 C 119.5,109.833 120.167,110.5 120.5,111.5C 121.057,120.298 122.39,128.965 124.5,137.5C 123.508,137.672 122.842,137.338 122.5,136.5C 122.768,134.901 122.434,133.568 121.5,132.5C 121.371,130.784 121.038,129.117 120.5,127.5C 119.043,121.599 118.376,115.599 118.5,109.5 Z"/></g>
<g><path style="opacity:0.787" fill="#c83e5e" d="M 129.5,120.5 C 130.833,121.167 132.167,121.833 133.5,122.5C 134.833,123.833 136.167,123.833 137.5,122.5C 138.258,124.981 138.258,127.648 137.5,130.5C 137.167,130.5 136.833,130.5 136.5,130.5C 135.167,130.5 133.833,130.5 132.5,130.5C 132.5,132.167 132.5,133.833 132.5,135.5C 131.408,130.638 130.408,125.638 129.5,120.5 Z"/></g>
<g><path style="opacity:0.933" fill="#2d0f08" d="M 41.5,129.5 C 41.3284,130.492 41.6618,131.158 42.5,131.5C 42.4173,133.57 41.4173,133.903 39.5,132.5C 37.8129,132.76 36.3129,133.427 35,134.5C 34.2828,133.956 33.7828,133.289 33.5,132.5C 34.9907,130.873 36.4907,129.207 38,127.5C 39.3026,127.978 40.4693,128.645 41.5,129.5 Z"/></g>
<g><path style="opacity:1" fill="#6c90b8" d="M 128.5,119.5 C 129.167,119.5 129.5,119.833 129.5,120.5C 130.408,125.638 131.408,130.638 132.5,135.5C 132.5,135.833 132.5,136.167 132.5,136.5C 131.833,136.5 131.167,136.5 130.5,136.5C 129.833,130.833 129.167,125.167 128.5,119.5 Z"/></g>
<g><path style="opacity:0.741" fill="#facfa7" d="M 65.5,132.5 C 68.5533,132.111 71.22,132.777 73.5,134.5C 73.1667,135.5 72.5,136.167 71.5,136.5C 69.5648,135.85 67.5648,135.517 65.5,135.5C 65.5,134.5 65.5,133.5 65.5,132.5 Z"/></g>
<g><path style="opacity:0.965" fill="#35aee6" d="M 82.5,131.5 C 87.1667,131.5 91.8333,131.5 96.5,131.5C 96.3011,134.941 96.8011,138.274 98,141.5C 100.37,138.961 102.87,136.628 105.5,134.5C 106.167,135.5 106.833,136.5 107.5,137.5C 103.488,143.499 99.1545,149.166 94.5,154.5C 91.1667,154.5 87.8333,154.5 84.5,154.5C 79.6768,148.853 75.3434,142.853 71.5,136.5C 72.5,136.167 73.1667,135.5 73.5,134.5C 76.4639,136.962 79.2972,139.629 82,142.5C 82.4986,138.848 82.6653,135.182 82.5,131.5 Z"/></g>
<g><path style="opacity:0.811" fill="#e4a974" d="M 121.5,132.5 C 122.434,133.568 122.768,134.901 122.5,136.5C 119.681,136.131 116.848,135.798 114,135.5C 111.498,135.338 109.331,136.005 107.5,137.5C 106.833,136.5 106.167,135.5 105.5,134.5C 106.834,133.348 108.334,132.348 110,131.5C 113.776,132.394 117.61,132.728 121.5,132.5 Z"/></g>
<g><path style="opacity:1" fill="#d99563" d="M 150.5,134.5 C 149.761,134.369 149.094,134.536 148.5,135C 150.187,136.913 150.687,139.08 150,141.5C 148.692,143.641 147.192,145.641 145.5,147.5C 142.318,148.228 139.318,148.561 136.5,148.5C 132.932,148.241 131.599,146.241 132.5,142.5C 132.5,140.833 132.5,139.167 132.5,137.5C 132.5,137.167 132.5,136.833 132.5,136.5C 132.5,136.167 132.5,135.833 132.5,135.5C 132.5,133.833 132.5,132.167 132.5,130.5C 133.833,130.5 135.167,130.5 136.5,130.5C 136.833,131.833 137.167,131.833 137.5,130.5C 141.526,129.479 145.526,129.812 149.5,131.5C 150.127,132.417 150.461,133.417 150.5,134.5 Z"/></g>
<g><path style="opacity:1" fill="#27232d" d="M 132.5,137.5 C 132.5,139.167 132.5,140.833 132.5,142.5C 129.817,144.094 127.484,143.761 125.5,141.5C 126.673,138.721 128.507,138.054 131,139.5C 131.278,138.584 131.778,137.918 132.5,137.5 Z"/></g>
<g><path style="opacity:1" fill="#f0bc97" d="M 42.5,131.5 C 46.8333,131.167 48.8333,133.167 48.5,137.5C 47.79,139.893 47.1233,142.393 46.5,145C 47.0659,145.995 47.7326,146.828 48.5,147.5C 48.0269,148.906 47.0269,149.573 45.5,149.5C 44.8501,149.196 44.1835,148.863 43.5,148.5C 41.9991,149.752 40.3325,150.752 38.5,151.5C 36.0737,148.838 33.5737,145.505 31,141.5C 31.096,139.619 30.9293,137.953 30.5,136.5C 30.7376,134.596 31.7376,133.262 33.5,132.5C 33.7828,133.289 34.2828,133.956 35,134.5C 36.3129,133.427 37.8129,132.76 39.5,132.5C 41.4173,133.903 42.4173,133.57 42.5,131.5 Z"/></g>
<g><path style="opacity:1" fill="#35130e" d="M 48.5,137.5 C 49.1667,137.833 49.8333,138.167 50.5,138.5C 51.2299,139.712 52.2299,140.712 53.5,141.5C 51.086,142.911 49.4194,144.911 48.5,147.5C 47.7326,146.828 47.0659,145.995 46.5,145C 47.1233,142.393 47.79,139.893 48.5,137.5 Z"/></g>
<g><path style="opacity:0.916" fill="#2d272f" d="M 150.5,134.5 C 156,143.505 153.666,149.505 143.5,152.5C 140.372,152.439 138.039,151.106 136.5,148.5C 139.318,148.561 142.318,148.228 145.5,147.5C 147.192,145.641 148.692,143.641 150,141.5C 150.687,139.08 150.187,136.913 148.5,135C 149.094,134.536 149.761,134.369 150.5,134.5 Z"/></g>
<g><path style="opacity:0.878" fill="#33110c" d="M 30.5,136.5 C 30.9293,137.953 31.096,139.619 31,141.5C 33.5737,145.505 36.0737,148.838 38.5,151.5C 40.3325,150.752 41.9991,149.752 43.5,148.5C 44.1835,148.863 44.8501,149.196 45.5,149.5C 39.7107,156.099 33.8774,156.099 28,149.5C 25.4625,144.395 26.2959,140.061 30.5,136.5 Z"/></g>
<g><path style="opacity:1" fill="#f8d0b3" d="M 84.5,154.5 C 87.8333,154.5 91.1667,154.5 94.5,154.5C 97.1565,156.656 99.6565,158.989 102,161.5C 102.667,162.833 102.667,164.167 102,165.5C 100.583,166.078 99.7496,167.078 99.5,168.5C 95.8124,170.96 91.979,172.294 88,172.5C 85.3478,170.68 82.8478,168.68 80.5,166.5C 77.7564,165.928 76.9231,164.262 78,161.5C 80.3441,159.323 82.5107,156.99 84.5,154.5 Z"/></g>
<g><path style="opacity:1" fill="#bc6708" d="M 80.5,166.5 C 82.8478,168.68 85.3478,170.68 88,172.5C 91.979,172.294 95.8124,170.96 99.5,168.5C 99.6567,169.873 99.49,171.207 99,172.5C 97.1871,174.761 95.6871,177.095 94.5,179.5C 94.1667,179.5 93.8333,179.5 93.5,179.5C 90.1095,178.859 86.7761,177.692 83.5,176C 80.3534,173.399 79.3534,170.232 80.5,166.5 Z"/></g>
</svg>
